 <svg version="1.0" xmlns="http://www.w3.org/2000/svg"
 width="1206.000000pt" height="1280.000000pt" viewBox="0 0 1206.000000 1280.000000"
 preserveAspectRatio="xMidYMid meet"><g transform="translate(0.000000,1280.000000) scale(0.100000,-0.100000)"
fill="#000000" stroke="none">
<path d="M6396 12750 c-25 -27 -46 -56 -46 -64 0 -21 -75 -54 -176 -75 -108
-23 -166 -48 -255 -107 -78 -52 -135 -113 -144 -156 -4 -16 -13 -32 -20 -35
-8 -2 -42 15 -77 40 -85 60 -253 152 -306 168 -35 10 -72 10 -190 0 -146 -12
-148 -12 -342 19 -224 37 -273 36 -494 -5 -76 -14 -174 -27 -218 -28 -88 -2
-88 -2 2 -55 40 -24 55 -27 130 -27 77 1 93 5 170 39 47 22 104 41 128 44 54
6 172 -13 276 -45 71 -21 109 -25 311 -33 258 -9 248 -6 433 -99 l122 -61 0
-64 c0 -94 -14 -154 -64 -268 -24 -57 -51 -126 -59 -155 -20 -67 -33 -91 -70
-130 -21 -23 -26 -33 -16 -33 39 0 81 -82 99 -189 7 -38 5 -75 -5 -130 -22
-113 -20 -162 10 -202 56 -78 75 -120 109 -239 39 -135 42 -163 25 -221 -23
-75 42 -176 128 -198 21 -5 57 -15 80 -21 40 -10 58 -27 107 -95 25 -36 97
-81 165 -102 113 -35 337 -17 459 37 77 34 40 43 -89 21 -171 -30 -257 -35
-334 -22 -101 18 -155 50 -155 92 0 14 84 11 180 -6 112 -20 285 -19 363 1
109 28 257 115 257 150 0 26 -27 26 -76 1 -147 -74 -454 -154 -454 -118 0 12
20 19 126 46 160 41 348 153 404 242 33 52 47 138 59 357 l7 150 102 95 c101
96 172 175 172 192 0 15 -32 10 -53 -8 -20 -18 -20 -17 -13 26 10 67 48 155
69 159 35 7 61 -103 36 -150 -6 -12 -15 -50 -19 -85 -14 -115 -87 -227 -190
-293 -53 -34 -57 -50 -11 -50 82 0 241 171 241 259 0 39 23 51 97 51 112 0
129 -21 67 -81 -44 -41 -141 -186 -171 -254 -11 -28 -33 -89 -48 -137 -39
-126 -117 -280 -168 -331 -23 -23 -77 -73 -119 -110 -43 -38 -78 -73 -78 -79
0 -19 70 0 128 34 99 59 163 159 273 425 109 265 139 321 217 405 38 42 73 85
76 96 5 14 26 27 69 41 79 27 159 80 187 126 20 32 23 56 31 217 5 100 13 186
19 192 7 7 19 3 37 -12 50 -41 106 -60 221 -77 242 -35 330 -89 489 -302 81
-109 144 -173 170 -173 24 0 22 19 -7 56 -60 74 -21 76 125 4 132 -64 218
-130 282 -214 50 -67 120 -192 112 -200 -5 -6 -269 77 -320 99 -30 14 -39 23
-37 39 3 18 -3 21 -39 24 -75 6 -80 -6 -32 -78 24 -35 59 -81 80 -102 l37 -39
84 6 c71 6 93 4 147 -15 87 -29 155 -76 238 -163 118 -124 210 -297 278 -523
14 -49 55 -177 90 -284 96 -291 125 -404 125 -478 l0 -64 -72 -73 c-40 -40
-93 -82 -117 -95 -41 -20 -46 -21 -57 -6 -6 9 -15 35 -18 59 -7 44 -30 87 -46
87 -16 0 -12 -102 6 -154 19 -56 50 -80 90 -70 18 4 67 45 128 106 l98 100 -7
-43 c-3 -24 -13 -79 -21 -122 -9 -43 -13 -81 -11 -84 3 -3 19 14 36 38 52 72
111 295 98 373 -3 17 -20 54 -39 81 -73 109 -203 490 -177 521 24 29 145 -44
179 -110 l23 -42 -22 -64 c-22 -62 -31 -153 -18 -167 4 -3 24 -1 46 5 21 7 59
12 84 12 37 0 49 5 65 25 11 14 27 25 35 25 21 0 90 -83 129 -155 32 -58 33
-65 38 -200 l5 -140 37 -20 c43 -23 69 -14 78 26 9 41 80 68 204 79 80 7 122
16 164 35 34 16 59 22 65 16 16 -16 -12 -148 -39 -180 -43 -51 -70 -56 -228
-43 -162 13 -179 11 -303 -50 -87 -42 -109 -60 -98 -79 14 -21 93 -3 156 36
88 54 104 56 255 40 102 -12 145 -12 184 -4 61 13 80 7 80 -24 0 -62 -70 -210
-117 -247 -70 -55 -143 -48 -357 37 -195 77 -247 75 -381 -16 -39 -27 -59 -26
-78 2 -16 22 -16 21 -16 -17 -1 -21 9 -93 21 -160 27 -155 29 -317 4 -400 -10
-33 -35 -94 -56 -135 -59 -118 -78 -186 -89 -314 -12 -139 -34 -197 -135 -365
-74 -124 -107 -193 -125 -266 -7 -27 -26 -79 -43 -115 -17 -36 -41 -110 -54
-166 -58 -241 -106 -366 -192 -492 -46 -68 -150 -168 -209 -200 l-40 -23 -43
53 c-58 70 -76 116 -91 221 -8 61 -18 95 -31 108 -45 45 -55 13 -34 -115 31
-185 67 -234 246 -332 60 -33 151 -89 202 -125 94 -67 341 -296 336 -312 -2
-5 -34 -20 -71 -33 -134 -46 -477 -252 -634 -378 -215 -175 -352 -307 -414
-401 -69 -105 -162 -282 -157 -298 3 -7 41 42 86 108 137 203 378 464 543 591
116 88 532 320 642 358 118 40 66 -23 -63 -76 -406 -169 -778 -465 -1034 -823
-31 -43 -56 -82 -56 -87 0 -5 9 -9 20 -9 20 0 26 -16 12 -37 -4 -6 -26 -19
-49 -28 -27 -11 -50 -30 -64 -52 -23 -37 -19 -54 9 -37 9 6 27 17 38 24 36 22
54 7 54 -48 0 -26 -6 -55 -12 -64 -12 -14 -174 -46 -184 -36 -2 3 1 80 6 174
5 93 14 283 20 421 6 139 13 259 16 267 3 8 20 19 37 26 70 25 103 47 173 117
55 53 74 78 74 98 0 48 127 166 204 190 19 5 19 6 0 20 -19 13 -19 14 0 21 10
4 27 2 37 -4 15 -10 19 -7 27 21 6 18 13 50 17 72 10 64 15 75 36 75 31 0 34
28 8 57 -13 14 -61 54 -106 90 -89 69 -111 99 -138 183 -39 123 -86 183 -129
167 -13 -5 -8 -20 26 -86 23 -44 39 -84 35 -87 -19 -20 -81 77 -122 191 -25
68 -31 72 -50 36 -15 -30 -15 -34 5 -77 11 -26 20 -48 20 -50 0 -2 -17 -4 -37
-4 -69 -1 -214 -85 -274 -160 -36 -44 -44 -48 -53 -24 -8 22 7 46 80 126 145
157 233 331 249 487 8 77 20 103 74 156 50 47 67 40 52 -23 -10 -46 0 -55 23
-19 8 12 68 69 133 127 145 129 197 183 274 284 93 122 101 142 100 254 -1
105 6 162 21 162 21 0 41 -77 41 -166 1 -81 -2 -96 -25 -135 -15 -24 -45 -62
-67 -84 -40 -38 -52 -65 -30 -65 24 0 121 106 151 167 29 60 30 67 26 155 -4
74 -13 115 -44 203 l-39 110 3 181 c3 164 1 186 -18 240 -57 158 -65 323 -24
479 22 85 25 114 21 195 -5 96 -26 193 -45 212 -12 12 -271 67 -318 68 -17 0
-56 -13 -86 -29 -75 -40 -99 -42 -115 -11 -7 14 -18 68 -24 120 -13 100 -28
150 -29 93 0 -17 -16 -85 -35 -150 -74 -247 -109 -427 -136 -698 -13 -132 -16
-486 -5 -524 18 -55 28 10 36 240 10 259 28 431 62 594 24 118 66 266 78 279
5 5 14 -11 20 -35 39 -146 81 -241 160 -368 46 -74 116 -247 130 -322 6 -29
10 -190 10 -360 l0 -308 -50 -47 c-27 -26 -68 -75 -90 -110 -22 -35 -47 -64
-55 -64 -8 0 -76 -59 -152 -131 -139 -132 -212 -189 -244 -189 -26 0 -34 -20
-15 -38 17 -17 25 -14 145 53 78 44 157 32 286 -45 52 -31 68 -35 130 -36 88
-1 91 -16 15 -62 -70 -42 -152 -72 -194 -72 -46 0 -158 35 -231 73 -52 26 -73
31 -156 35 -83 4 -103 1 -145 -17 -27 -12 -69 -27 -94 -32 -25 -6 -80 -31
-123 -56 -43 -25 -80 -43 -83 -41 -16 17 271 337 398 445 49 41 88 81 88 89 0
18 -3 18 -48 -5 -65 -33 -188 -147 -289 -267 -235 -281 -292 -345 -391 -442
-151 -148 -214 -192 -427 -297 -353 -174 -695 -298 -885 -321 -161 -20 -597
-30 -685 -16 -130 21 -477 218 -604 344 -236 232 -351 604 -351 1134 0 187 10
261 56 401 89 273 261 507 554 752 193 162 214 204 208 416 l-3 120 -18 -78
c-35 -147 -71 -202 -266 -402 -322 -330 -424 -480 -511 -752 -70 -218 -95
-404 -87 -652 7 -206 26 -314 89 -483 42 -113 42 -113 40 -242 -1 -101 1 -135
13 -152 20 -31 19 -39 -9 -67 -14 -14 -27 -42 -31 -68 -4 -24 -13 -54 -20 -65
-13 -20 -248 -228 -340 -301 -22 -18 -62 -39 -89 -48 -55 -19 -106 -49 -182
-106 -31 -24 -75 -45 -110 -55 -32 -8 -72 -24 -89 -34 -32 -20 -32 -20 -38
-126 -4 -59 -7 -207 -7 -329 l0 -222 -82 -73 c-46 -40 -98 -79 -117 -87 -51
-22 -169 -104 -222 -154 l-47 -44 9 -130 c4 -71 13 -203 19 -291 l12 -162 -27
-52 c-14 -28 -44 -71 -66 -95 -21 -23 -39 -49 -39 -58 0 -22 39 -47 73 -47 54
0 147 65 147 102 0 33 -40 17 -102 -40 -16 -14 -28 -21 -28 -15 0 51 335 363
391 363 33 0 21 -17 -63 -91 -121 -105 -168 -150 -168 -160 0 -16 31 -10 57
11 14 11 32 20 40 20 9 0 41 22 72 49 67 57 91 71 126 71 18 0 28 7 35 24 12
33 86 49 222 50 93 1 110 -2 135 -20 38 -28 40 -65 8 -120 -24 -41 -26 -49
-14 -76 16 -38 144 -170 221 -227 79 -59 91 -55 147 48 25 46 51 83 56 83 6
-1 16 -26 23 -54 36 -146 346 -696 441 -782 33 -30 26 -11 -39 104 -33 59 -60
110 -60 115 0 4 -43 83 -95 175 -100 174 -188 362 -183 387 2 10 22 -2 63 -38
72 -63 142 -109 167 -109 30 0 39 33 20 71 -13 27 -25 35 -54 40 -20 3 -69 24
-108 47 -39 22 -79 44 -89 47 -26 8 -66 115 -44 115 6 0 41 -27 79 -61 90 -80
116 -93 171 -85 46 6 47 5 68 -59 13 -42 25 13 35 176 13 186 28 238 76 257
38 15 144 33 155 27 4 -3 1 -21 -7 -40 -16 -40 -17 -45 -6 -45 4 0 25 29 45
65 34 59 67 85 67 52 0 -38 -94 -148 -137 -161 -27 -8 -123 -112 -123 -132 0
-8 7 -26 16 -39 20 -30 11 -45 -26 -45 -16 0 -32 -4 -35 -10 -3 -5 10 -40 29
-77 19 -37 39 -86 45 -108 18 -68 77 -144 235 -300 189 -187 302 -280 322
-264 7 6 39 49 71 95 31 46 58 82 61 80 2 -3 -52 -119 -121 -258 -84 -169
-139 -269 -167 -301 -37 -42 -41 -51 -32 -71 31 -70 430 -345 534 -370 37 -9
74 11 91 48 8 17 38 104 66 192 51 160 80 223 81 178 0 -51 -44 -254 -67 -306
-23 -53 -24 -58 -9 -80 9 -12 16 -30 16 -39 0 -26 -63 -43 -155 -43 -76 -1
-84 2 -175 48 -126 65 -216 123 -314 206 -115 97 -247 179 -553 346 -147 80
-306 168 -352 196 -184 108 -472 243 -674 314 -149 53 -206 79 -213 98 -3 7 4
40 15 73 45 132 85 449 62 483 -7 10 -13 12 -20 5 -6 -6 -26 -119 -44 -251
-19 -132 -40 -250 -46 -262 -7 -14 -21 -22 -36 -22 -32 0 -33 -30 -5 -91 35
-78 22 -87 -59 -42 -27 16 -53 24 -57 20 -4 -4 7 -38 26 -77 l33 -69 -22 -67
c-28 -85 -52 -120 -96 -135 -19 -7 -35 -18 -35 -24 0 -5 14 -30 30 -55 43 -65
40 -88 -20 -144 -108 -101 -431 -282 -547 -306 -30 -7 -105 -10 -167 -8 -105
3 -115 5 -149 31 -20 15 -42 37 -48 49 -9 18 -7 24 17 43 34 27 28 40 -15 30
-39 -8 -81 -42 -81 -64 0 -10 32 -56 70 -104 39 -48 67 -87 63 -87 -5 1 -27 5
-50 9 -23 4 -47 4 -55 0 -18 -11 23 -53 79 -80 39 -19 57 -21 156 -17 93 4
128 10 206 37 133 45 198 88 330 218 156 154 168 149 43 -15 -99 -131 -244
-236 -397 -288 -68 -23 -96 -27 -187 -27 -126 1 -135 -8 -59 -56 95 -61 103
-96 27 -114 -20 -5 -36 -15 -36 -23 0 -33 273 -8 399 37 30 10 56 17 58 15 2
-2 8 -30 13 -62 8 -53 14 -63 56 -101 61 -54 198 -124 256 -130 56 -6 82 7
172 86 38 34 71 60 73 58 2 -2 -1 -27 -7 -55 -19 -103 24 -302 66 -302 15 0
16 8 10 57 -3 32 -9 128 -12 213 l-6 155 41 64 c23 35 40 66 37 69 -3 2 -30
-15 -61 -39 -155 -123 -191 -149 -262 -184 -76 -38 -142 -50 -150 -28 -2 6 11
19 30 28 57 27 196 143 339 285 132 131 138 138 192 250 31 63 63 147 72 185
22 97 21 95 40 95 55 0 -69 -383 -164 -508 -23 -30 -24 -37 -14 -64 9 -24 8
-50 -3 -117 -28 -166 -45 -523 -26 -535 4 -3 17 4 27 15 15 17 19 47 26 203
12 295 44 474 123 686 24 63 51 143 60 177 17 59 47 104 62 90 3 -4 -26 -111
-66 -238 -94 -299 -101 -342 -101 -667 0 -286 1 -289 55 -264 26 12 85 106 85
135 0 18 -2 17 -34 -2 -18 -12 -37 -21 -41 -21 -14 0 7 56 40 106 101 154 200
411 251 649 20 97 29 115 54 115 17 0 20 -7 20 -40 0 -50 -62 -378 -101 -535
-81 -325 -125 -395 -304 -485 l-80 -40 101 6 c67 4 104 3 108 -4 3 -6 2 -13
-4 -17 -22 -14 -8 -25 31 -25 147 0 254 182 304 515 17 112 20 209 6 185 -5
-8 -19 -65 -30 -125 -12 -61 -30 -144 -41 -185 -28 -100 -94 -236 -126 -256
-45 -30 -47 -5 -9 101 62 171 109 372 170 727 9 53 22 104 30 114 11 16 14 10
21 -46 7 -47 13 -65 24 -65 8 0 16 10 18 23 6 44 19 21 25 -45 12 -123 7 -360
-9 -470 -29 -200 -63 -278 -210 -487 -31 -44 -46 -106 -26 -106 17 0 96 118
143 215 83 171 119 296 131 454 5 75 7 181 4 236 -6 95 3 197 18 212 4 4 19
-5 34 -20 27 -27 27 -28 25 -160 -1 -88 -8 -165 -22 -232 -13 -62 -17 -103
-11 -109 6 -6 11 -4 15 5 12 32 57 259 66 339 6 47 12 87 15 89 23 24 37 -125
38 -409 1 -304 5 -279 -78 -508 -20 -54 -26 -87 -24 -130 l3 -57 38 74 c73
139 96 293 98 638 1 120 4 232 8 248 14 67 24 -7 34 -266 14 -338 6 -428 -48
-542 -42 -90 -61 -170 -51 -211 9 -36 36 -31 49 9 19 58 47 70 47 19 0 -42 30
-25 61 34 15 29 45 72 67 96 40 43 68 86 57 86 -4 0 -22 -12 -41 -26 -41 -32
-53 -25 -35 19 7 18 32 92 56 165 55 166 61 177 71 137 8 -34 -10 -320 -27
-410 -19 -106 -33 -128 -102 -166 -34 -19 -62 -41 -62 -49 0 -8 20 -25 45 -38
43 -22 79 -25 154 -11 15 3 28 -10 53 -56 62 -109 105 -121 180 -52 l46 42 -7
-40 c-13 -72 -29 -114 -45 -120 -9 -4 -74 -11 -146 -16 -152 -11 -245 -24
-335 -46 -77 -18 -143 -50 -135 -63 11 -17 137 -11 291 15 82 14 208 29 279
34 188 12 209 26 261 186 15 44 52 143 84 220 90 221 126 342 155 518 8 55 20
108 26 118 10 19 49 27 49 10 0 -29 -64 -325 -91 -423 -41 -149 -77 -244 -149
-399 -33 -70 -63 -147 -66 -171 -5 -38 -2 -48 21 -76 15 -18 47 -44 72 -58
l44 -27 42 19 c23 10 75 50 115 88 63 61 75 69 91 59 40 -25 68 49 121 312 17
88 45 214 61 280 16 66 29 143 29 172 0 29 4 53 9 53 19 0 24 -138 12 -305
-16 -228 -31 -298 -91 -425 -55 -116 -67 -190 -32 -190 10 0 26 9 35 21 24 28
36 21 70 -37 31 -53 72 -100 100 -115 29 -16 100 22 134 72 39 56 85 148 123
245 17 41 40 94 51 115 68 133 36 -151 -37 -322 -30 -72 -33 -139 -6 -139 26
0 67 46 94 105 22 49 23 58 22 335 0 266 -13 452 -33 488 -14 24 -19 2 -31
-128 -23 -264 -108 -504 -216 -615 -71 -73 -88 -54 -28 30 99 139 170 357 214
658 11 76 20 141 20 144 0 4 6 -1 13 -12 16 -21 37 -12 37 16 0 26 28 36 46
17 23 -23 32 -114 45 -447 17 -437 7 -493 -107 -582 -32 -25 -59 -52 -59 -60
0 -21 85 -23 150 -4 114 33 169 119 247 385 29 102 30 114 37 372 4 147 10
270 13 273 11 12 105 20 168 15 l65 -5 -3 -125 c-4 -190 -21 -429 -31 -447 -8
-14 -9 -14 -15 3 -8 26 -43 234 -51 309 -12 100 -21 91 -17 -18 4 -138 28
-319 58 -451 26 -112 28 -167 7 -173 -17 -6 -26 35 -84 352 -28 154 -55 284
-60 289 -12 14 -12 -170 2 -292 17 -162 65 -381 104 -484 11 -28 -20 -22 -40
8 -9 14 -32 87 -51 161 -19 74 -40 145 -47 156 -11 21 -12 20 -15 -13 -9 -91
42 -366 81 -435 30 -53 52 -51 92 5 25 36 41 47 80 59 65 18 148 101 198 198
62 120 68 111 38 -62 -19 -104 -19 -120 -5 -295 24 -306 28 -320 108 -384 32
-26 46 -31 88 -29 28 0 56 7 64 15 7 7 17 49 21 93 4 44 12 80 18 80 10 0 24
-20 78 -115 37 -64 68 -75 116 -41 36 26 52 26 84 1 29 -23 49 -25 79 -9 11 6
51 11 89 10 67 -1 68 -1 96 37 15 20 42 54 59 74 44 50 52 106 30 228 -9 52
-33 133 -52 180 -79 187 -77 176 -63 342 l12 148 41 -35 c137 -119 258 -194
291 -181 15 5 15 10 -4 42 l-21 36 21 17 c32 26 19 59 -53 137 -58 61 -62 69
-60 108 1 24 5 53 10 65 7 20 15 12 74 -76 85 -126 153 -201 229 -252 74 -49
107 -52 151 -12 40 36 34 44 -52 66 -112 28 -145 50 -219 141 -114 142 -201
305 -201 376 0 41 8 33 65 -72 75 -136 189 -280 279 -351 62 -49 135 -73 186
-59 41 11 99 65 84 79 -5 5 -51 17 -102 25 -51 9 -110 25 -131 36 -44 22 -71
70 -71 127 0 21 -7 83 -15 138 -32 214 -34 195 20 243 69 61 79 56 51 -26 -33
-97 -38 -122 -26 -122 17 0 92 167 145 320 26 74 54 148 63 165 l15 30 9 -25
c14 -34 2 -252 -17 -326 -9 -32 -30 -87 -47 -121 -27 -54 -30 -66 -20 -88 14
-31 53 -34 81 -6 31 31 36 95 36 446 -1 272 -4 349 -19 436 -26 152 -22 158
54 79 75 -78 127 -153 136 -197 10 -51 -21 -43 -78 20 l-49 52 39 -85 c55
-120 82 -233 81 -344 -1 -116 -14 -153 -68 -189 -32 -22 -39 -32 -31 -42 15
-18 90 -37 131 -33 l34 3 -3 125 c-1 69 -10 177 -19 240 -20 142 -21 172 -6
177 26 9 43 -62 63 -272 19 -201 46 -325 70 -325 11 0 53 462 47 520 -9 79
-70 266 -120 365 -77 154 -156 248 -269 319 -85 54 -123 115 -77 124 33 6 288
-242 429 -418 29 -36 64 -90 79 -120 25 -54 26 -58 26 -285 0 -144 4 -231 10
-233 13 -5 53 153 61 239 8 78 -9 209 -37 293 -11 32 -45 99 -75 149 -31 50
-85 146 -121 214 -47 88 -87 146 -139 204 -41 45 -74 89 -74 98 0 10 9 27 21
40 18 19 27 21 78 15 35 -4 61 -2 64 3 4 6 -2 26 -12 46 -11 21 -24 81 -31
139 -6 57 -18 146 -27 198 -13 81 -14 113 -3 220 20 210 -18 486 -101 732 -26
77 -37 127 -33 143 10 42 32 29 48 -27 77 -279 90 -318 172 -478 58 -113 103
-178 104 -148 0 24 -33 105 -95 233 -77 157 -135 368 -135 490 0 101 32 80 43
-27 11 -116 129 -408 216 -536 49 -73 50 -92 16 -234 -33 -137 -33 -185 0
-200 15 -7 31 -28 41 -54 9 -24 20 -44 23 -44 18 0 64 62 82 111 64 167 29
642 -69 944 -41 124 -38 61 8 -212 51 -306 63 -426 50 -511 -12 -70 -36 -127
-69 -156 -28 -25 -35 -16 -22 30 20 78 33 358 21 482 -12 131 -67 417 -106
553 -34 120 -30 154 11 77 17 -32 33 -58 37 -58 8 0 -5 48 -21 78 -24 45 -3
57 36 20 32 -30 37 -18 17 40 -15 42 -16 53 -5 66 20 24 39 20 54 -11 18 -34
71 -205 91 -293 32 -132 16 -129 -54 10 -48 95 -70 126 -70 97 0 -29 40 -129
125 -307 142 -299 205 -478 205 -582 0 -67 22 -90 40 -42 11 28 -1 341 -21
549 -17 187 -93 498 -156 638 l-26 58 28 27 27 27 -5 -29 c-4 -22 4 -40 34
-80 81 -107 240 -433 274 -562 9 -32 22 -148 31 -257 16 -212 25 -257 48 -238
37 31 47 211 21 356 -42 229 -50 303 -44 430 1 17 -30 121 -70 233 -39 112
-71 210 -71 218 0 36 24 7 61 -73 45 -98 64 -124 85 -116 22 8 17 29 -28 113
-51 94 -48 108 33 128 72 18 89 35 89 88 0 23 -3 50 -6 59 -9 23 -57 45 -99
45 -50 0 -71 14 -79 51 -14 70 -84 153 -232 272 -102 83 -282 266 -289 294 -3
15 -33 84 -65 155 l-59 127 57 93 c76 126 135 268 173 418 17 69 49 166 71
215 22 50 49 126 59 170 24 95 97 250 138 289 l28 27 29 -31 c45 -49 107 -81
168 -87 71 -7 400 25 446 44 19 8 63 32 97 54 62 40 86 47 236 65 63 7 105 45
145 128 18 37 39 67 50 70 20 7 49 45 97 130 15 27 50 71 78 97 41 40 48 49
34 55 -19 7 -29 6 -146 -26 -122 -32 -211 -15 -326 63 -29 20 -33 26 -19 31 9
3 32 4 50 0 19 -3 45 -3 59 0 22 6 25 12 25 49 0 49 21 84 58 98 20 8 32 5 62
-15 43 -28 100 -109 100 -142 0 -36 21 -40 47 -10 28 33 29 55 3 105 -23 46
-70 87 -129 114 -41 18 -46 18 -85 3 -24 -9 -67 -37 -97 -63 -30 -25 -72 -54
-94 -64 -22 -10 -45 -27 -52 -37 -6 -11 -55 -43 -108 -71 -71 -38 -117 -55
-173 -65 -43 -8 -95 -23 -117 -34 -27 -14 -70 -22 -135 -27 -52 -3 -113 -10
-135 -14 -22 -4 -46 -6 -53 -3 -28 9 -11 73 56 203 l67 132 3 97 4 97 65 6
c72 7 123 33 141 72 14 30 31 32 65 5 45 -36 94 -50 169 -50 l72 0 47 50 c25
27 63 81 83 119 22 43 45 72 58 77 31 10 112 89 148 144 25 39 33 67 45 156 8
60 15 153 15 207 0 83 -4 107 -26 159 -29 70 -27 99 11 156 26 38 32 89 15
122 -5 10 -32 34 -60 54 -53 38 -65 71 -35 96 36 30 4 132 -69 216 -20 24 -63
55 -101 74 -49 24 -83 52 -128 102 l-62 69 -235 -6 c-408 -10 -519 -37 -434
-104 35 -28 80 -26 146 4 96 45 171 26 226 -55 20 -30 23 -44 19 -100 -4 -69
-33 -157 -70 -212 -20 -29 -28 -33 -67 -33 l-45 0 -8 85 c-8 97 -33 155 -82
199 -34 29 -130 71 -164 71 -28 0 -39 20 -61 106 -27 104 -97 275 -157 381
-43 76 -92 135 -195 229 -14 14 -58 87 -97 162 -79 154 -136 232 -213 293 -63
50 -207 119 -298 144 -102 27 -153 61 -244 159 -108 118 -194 164 -371 202
-172 37 -249 61 -270 84 -15 17 -20 45 -26 158 -10 198 -46 280 -151 338 -48
26 -62 29 -143 29 -81 0 -99 -4 -180 -37 -92 -38 -175 -52 -182 -32 -2 6 12
21 31 32 49 29 105 109 106 150 0 67 -37 92 -136 92 -64 0 -97 12 -141 50 -41
36 -65 37 -293 14 -166 -17 -200 -15 -288 16 -31 11 -64 20 -73 20 -9 0 -37
-22 -63 -50z m805 -177 c-14 -27 -38 -46 -45 -35 -9 15 34 76 46 64 7 -7 7
-16 -1 -29z m-213 -91 c130 -60 212 -106 212 -120 0 -5 -37 -13 -82 -19 -105
-14 -132 -4 -186 69 -49 65 -79 98 -112 121 l-25 18 33 -5 c18 -3 90 -32 160
-64z m627 -124 c26 -12 34 -28 13 -28 -20 0 -78 24 -78 32 0 12 35 10 65 -4z
m-1130 -58 c-3 -5 -21 -10 -38 -10 -24 0 -28 3 -17 10 20 13 63 13 55 0z
m1174 -56 c33 -27 68 -84 53 -84 -13 0 -162 129 -162 140 0 14 69 -22 109 -56z
m-276 49 c-7 -2 -21 -2 -30 0 -10 3 -4 5 12 5 17 0 24 -2 18 -5z m117 -15 c27
-17 31 -23 17 -26 -15 -3 -87 33 -87 44 0 11 39 1 70 -18z m-1256 -68 c-6 -29
-6 -30 27 -23 l34 6 -28 -32 c-19 -24 -26 -40 -21 -55 13 -44 30 -48 167 -42
70 3 127 4 127 1 0 -2 -29 -13 -65 -24 -91 -28 -124 -47 -131 -77 -10 -38 5
-46 61 -34 32 7 52 7 58 1 12 -12 2 -16 -56 -26 -54 -9 -70 -45 -36 -81 42
-46 107 -77 162 -79 29 -1 81 -3 117 -4 l65 -2 -70 -18 c-106 -26 -148 -56
-89 -63 21 -2 29 -12 42 -53 37 -109 116 -205 168 -205 38 0 142 29 186 51 39
20 50 39 23 39 -24 0 -17 17 9 24 27 7 56 -1 56 -15 0 -23 19 -5 34 31 22 55
21 60 -14 60 -44 0 -37 16 20 45 80 40 82 37 50 -69 -25 -78 -63 -126 -126
-155 -24 -12 -46 -27 -48 -34 -2 -6 -8 -34 -14 -62 -5 -27 -17 -68 -25 -90 -8
-23 -20 -111 -26 -205 -18 -270 -43 -343 -136 -400 -31 -19 -84 -53 -118 -75
-96 -63 -126 -76 -223 -96 -84 -17 -324 -41 -333 -33 -2 2 5 6 15 10 10 4 99
38 196 76 167 64 254 91 340 103 45 7 95 46 83 64 -12 21 -86 4 -250 -56 -295
-108 -372 -127 -505 -127 -97 0 -155 17 -189 58 -7 9 -16 69 -22 146 -5 71
-14 151 -19 176 -6 25 -7 50 -4 56 12 18 85 1 161 -38 80 -42 95 -41 123 9 19
33 0 57 -44 57 -76 0 -186 51 -186 87 0 8 14 28 31 44 18 16 29 32 25 36 -15
16 -114 15 -144 -1 -36 -19 -60 -11 -86 26 -26 36 -19 64 44 185 78 151 87
183 65 240 -22 56 -77 113 -110 113 -39 0 -32 31 40 179 69 141 119 218 160
245 13 9 84 27 157 41 161 31 220 49 243 75 26 28 35 25 29 -10z m817 14 c129
-38 143 -73 19 -48 -87 18 -140 38 -140 53 0 16 59 13 121 -5z m-431 -53 c0
-11 -87 -31 -132 -31 -46 0 -23 17 37 28 67 13 95 14 95 3z m995 -147 c-7 -67
-17 -78 -36 -43 -13 25 -4 84 19 119 15 23 17 23 20 6 2 -10 1 -47 -3 -82z
m-662 79 c-7 -2 -19 -2 -25 0 -7 3 -2 5 12 5 14 0 19 -2 13 -5z m567 -105 c0
-12 -25 -9 -38 4 -7 7 -12 23 -12 38 l0 25 25 -30 c13 -16 24 -33 25 -37z
m-123 -25 c-2 -16 -4 -3 -4 27 0 30 2 43 4 28 2 -16 2 -40 0 -55z m-794 50
c-7 -2 -21 -2 -30 0 -10 3 -4 5 12 5 17 0 24 -2 18 -5z m257 -183 c-8 -5 -80
-9 -160 -9 -88 1 -133 4 -115 9 46 12 293 12 275 0z m-11 -134 c-5 -5 -182
-46 -196 -46 -4 0 -2 5 4 11 6 6 38 17 70 24 58 13 130 19 122 11z m551 -12
c0 -22 -57 -74 -81 -74 -10 0 -19 4 -19 8 0 14 78 79 98 82 1 0 2 -7 2 -16z
m-1749 -114 c28 -16 25 -50 -5 -50 -23 0 -56 23 -56 39 0 22 30 27 61 11z
m1749 -43 c0 -8 -3 -17 -7 -20 -9 -9 -34 13 -27 24 8 14 34 11 34 -4z m-642
-34 c-10 -2 -26 -2 -35 0 -10 3 -2 5 17 5 19 0 27 -2 18 -5z m-1108 -93 c0
-11 -6 -20 -14 -20 -18 0 -29 16 -21 30 11 18 35 11 35 -10z m1420 -55 c-48
-49 -60 -54 -60 -27 0 21 21 42 65 65 45 23 44 11 -5 -38z m-1352 -297 c28
-28 -3 -83 -33 -58 -15 13 -20 51 -8 63 10 11 28 8 41 -5z m4757 -770 c30 -16
85 -70 101 -100 8 -16 14 -56 14 -100 0 -91 -17 -122 -99 -177 -34 -23 -70
-51 -80 -63 -18 -18 -28 -20 -82 -15 -34 3 -66 10 -71 15 -6 6 -2 27 12 58 54
120 66 250 29 310 -28 46 -22 77 16 86 37 8 133 0 160 -14z m260 -181 c99 -56
113 -160 31 -236 -34 -32 -33 -42 5 -34 82 16 -12 -53 -273 -201 -44 -24 -60
-19 -96 35 -37 53 -27 75 63 147 160 127 195 172 195 250 0 34 14 62 30 62 3
0 23 -10 45 -23z m167 -414 c0 -97 -14 -152 -45 -181 -17 -16 -78 -36 -218
-71 -107 -27 -198 -45 -202 -41 -4 4 -7 33 -5 65 l3 58 45 13 c27 8 71 35 110
68 36 31 109 79 163 107 54 29 103 61 108 72 10 17 13 18 26 4 11 -11 15 -36
15 -94z m-1960 -463 c40 -11 87 -20 105 -20 42 0 58 -24 77 -115 8 -38 13 -71
12 -72 -1 -2 -55 -10 -118 -18 -122 -16 -148 -22 -148 -35 0 -12 57 -20 151
-20 65 0 89 -3 89 -13 0 -21 -39 -150 -48 -159 -5 -5 -14 4 -21 21 -13 30 -63
61 -99 61 -11 0 -45 -12 -75 -26 -45 -20 -60 -23 -77 -14 -24 13 -138 242
-147 294 -5 32 -3 37 23 46 15 6 43 29 62 51 31 37 37 39 88 39 30 0 87 -9
126 -20z m1490 -325 c118 -53 207 -86 252 -93 22 -4 41 -12 43 -18 6 -18 -96
-121 -140 -143 -93 -45 -138 -30 -315 105 -93 72 -125 88 -153 79 -26 -9 -24
-18 9 -32 33 -15 147 -127 147 -145 0 -15 -99 -57 -136 -58 -36 0 -54 25 -68
94 -20 106 -16 134 26 174 97 91 189 102 335 37z m-1472 -147 c39 -39 110
-145 110 -165 0 -20 -87 -16 -136 6 -42 19 -78 59 -108 118 l-17 33 33 20 c48
29 80 25 118 -12z m89 -252 c40 -13 54 -45 70 -162 14 -94 14 -261 1 -269 -24
-15 -60 121 -60 227 0 79 -39 152 -71 132 -14 -8 -11 -59 7 -126 14 -54 14
-62 0 -77 -23 -25 -20 -41 15 -97 77 -120 121 -244 87 -244 -7 0 -46 18 -85
40 l-73 41 0 82 c0 140 -20 372 -35 423 -8 27 -15 52 -15 55 0 8 116 -10 159
-25z m1716 -442 c144 -62 158 -66 237 -65 82 1 98 -7 70 -32 -68 -61 -216 -79
-332 -39 -110 38 -195 84 -198 109 -8 55 121 70 223 27z m-284 -95 c35 -11 88
-33 119 -49 67 -34 224 -90 253 -90 12 -1 35 -7 51 -13 l29 -13 -39 -38 c-64
-62 -108 -81 -195 -81 -67 0 -83 4 -151 38 -131 64 -290 231 -247 258 25 15
114 10 180 -12z m-307 -14 c17 -8 81 -61 141 -118 130 -121 175 -157 233 -186
23 -12 42 -24 42 -27 0 -12 -154 -77 -193 -81 -77 -9 -182 58 -244 154 -37 58
-98 235 -89 258 7 20 69 19 110 0z m-1187 -54 c26 -16 68 -39 93 -53 51 -27
60 -48 31 -77 -28 -28 -100 -28 -158 0 -57 27 -67 47 -52 102 18 69 18 69 86
28z m1005 -18 c9 -10 36 -61 61 -114 26 -53 71 -130 102 -170 30 -41 55 -77
55 -81 0 -25 -150 2 -236 43 -90 42 -90 41 -70 167 10 59 22 122 27 140 12 36
37 42 61 15z m-918 -193 c50 -11 58 -24 52 -87 -10 -115 -73 -191 -135 -160
-29 14 -221 165 -221 173 0 18 43 83 57 88 24 7 199 -3 247 -14z m-276 -179
c21 -11 71 -42 112 -70 40 -28 81 -51 91 -51 50 0 20 -62 -44 -90 -63 -27
-144 -34 -195 -17 -48 17 -139 70 -183 107 l-30 25 25 33 c60 82 143 105 224
63z m-365 -435 c64 -30 117 -59 117 -64 0 -16 -55 -60 -110 -88 -95 -48 -200
-31 -296 49 -47 39 -106 77 -120 77 -59 0 60 -122 170 -175 41 -20 78 -41 82
-46 11 -18 -40 -79 -82 -99 -30 -15 -61 -20 -121 -20 -74 0 -87 3 -145 35 -34
20 -107 57 -160 83 -54 26 -98 53 -98 59 0 16 46 39 95 49 70 12 133 50 155
93 20 40 24 42 115 56 22 3 76 23 120 44 l80 38 40 -18 c22 -9 93 -42 158 -73z
m27 -239 c0 -27 -35 -155 -45 -165 -10 -10 -63 56 -76 96 -13 41 -4 54 56 76
56 20 65 19 65 -7z m-776 -31 c25 -8 90 -39 144 -70 125 -71 172 -88 254 -89
59 -1 75 3 144 38 l77 39 28 -32 c53 -60 44 -83 -126 -307 -78 -103 -104 -131
-127 -135 l-28 -5 35 -52 c33 -49 60 -73 84 -73 5 0 39 26 75 58 62 54 195
142 216 142 6 0 10 -15 10 -34 0 -32 3 -35 32 -38 26 -2 37 -11 55 -43 13 -22
23 -46 23 -53 0 -25 -44 -8 -65 25 -11 18 -24 31 -30 29 -15 -4 -59 -161 -51
-182 10 -27 29 -2 35 48 4 28 11 43 21 43 17 0 103 -104 131 -158 27 -51 20
-68 -24 -60 -32 5 -36 3 -52 -30 -9 -20 -40 -58 -68 -84 l-52 -48 -3 45 c-2
25 2 76 8 113 7 38 10 71 7 73 -9 9 -41 -13 -91 -65 -48 -49 -49 -50 -32 -73
9 -13 28 -38 41 -57 27 -37 35 -123 13 -137 -17 -11 -37 24 -85 145 l-41 105
49 48 c46 44 60 68 40 68 -5 0 -38 -19 -72 -42 -80 -54 -91 -81 -119 -290 -21
-160 -35 -224 -49 -232 -14 -9 -71 15 -81 34 -19 35 -11 137 17 219 25 76 26
111 3 111 -15 0 -102 -187 -139 -297 -33 -97 -30 -113 21 -113 22 0 31 6 35
21 8 29 48 20 115 -26 29 -19 58 -35 64 -35 7 0 17 21 23 48 10 44 31 190 31
215 0 25 18 -11 29 -58 16 -68 42 -126 55 -122 19 7 10 60 -24 136 -34 79 -49
185 -36 257 l8 38 37 -99 c21 -55 49 -123 63 -150 46 -90 50 -122 34 -247 -29
-221 -48 -574 -71 -1297 -16 -512 -25 -603 -72 -720 -42 -104 -165 -312 -222
-374 -71 -78 -237 -108 -406 -72 -156 33 -170 10 -61 -103 69 -73 93 -84 160
-76 64 8 108 -4 66 -16 -69 -21 -160 -3 -223 43 -89 67 -111 51 -37 -27 72
-76 105 -90 196 -82 41 4 94 13 119 20 38 12 45 12 45 1 0 -16 -38 -45 -59
-45 -8 0 -103 -43 -212 -95 -241 -116 -343 -151 -480 -166 -144 -16 -385 -6
-469 19 -97 29 -215 80 -235 102 -14 15 -24 74 -46 267 -16 137 -35 278 -42
316 -7 37 -12 69 -10 71 2 2 38 -5 80 -16 41 -10 80 -17 85 -16 17 6 -92 93
-188 151 -53 32 -89 60 -89 70 0 9 63 66 140 128 258 206 417 355 602 561 115
128 148 157 164 141 12 -12 -11 -93 -27 -93 -16 0 -22 -35 -27 -160 -4 -86 -8
-101 -41 -163 -62 -117 -47 -190 42 -203 77 -11 128 -41 190 -112 123 -140
151 -166 167 -152 8 7 29 57 45 111 17 55 36 99 41 99 6 0 53 -40 104 -90 51
-49 97 -90 103 -90 5 0 17 9 27 20 17 19 18 19 49 -4 38 -28 68 -36 90 -24 13
7 16 26 16 101 0 200 33 614 51 631 5 6 21 -2 42 -22 39 -38 47 -40 47 -8 0
31 -47 90 -201 252 -176 183 -199 217 -164 230 10 4 35 -12 70 -45 36 -34 62
-51 79 -51 16 0 26 -6 26 -15 0 -8 -4 -15 -10 -15 -20 0 -9 -27 15 -38 19 -9
27 -8 40 4 17 18 16 13 45 199 12 77 37 208 56 290 60 265 68 281 109 235 22
-24 41 -26 49 -3 9 22 -21 61 -147 199 -54 59 -106 123 -115 143 -11 23 -25
37 -39 39 -27 4 -76 62 -176 207 -41 61 -85 119 -96 129 -21 19 -21 19 -21
-10 0 -44 -11 -74 -26 -74 -9 0 -14 12 -14 35 0 49 -29 47 -77 -7 -77 -84
-100 -102 -190 -145 -106 -50 -434 -161 -505 -170 -37 -4 -61 0 -113 21 l-67
27 -105 -111 c-111 -117 -138 -133 -128 -77 4 22 0 42 -15 67 -11 19 -34 63
-50 98 -49 103 -87 106 -244 16 -53 -31 -100 -53 -104 -49 -4 3 4 23 16 43 34
54 132 255 132 270 0 7 -14 12 -36 12 -52 0 -73 15 -100 73 -34 74 -32 91 9
83 133 -28 286 -13 384 36 l62 32 60 -19 c79 -24 119 -17 238 39 99 46 150 61
235 71 45 6 85 24 209 94 47 26 77 34 178 46 139 17 224 46 263 88 18 19 51
36 95 49 90 27 118 42 183 97 30 26 61 51 67 55 8 4 28 -17 58 -64 42 -65 75
-90 75 -55 0 8 -11 45 -25 82 -27 70 -27 72 9 156 15 33 15 38 1 43 -9 4 -30
-8 -54 -29 -56 -51 -78 -60 -123 -53 -66 11 -113 41 -184 121 -37 41 -73 75
-80 75 -39 0 -20 50 29 80 38 24 41 24 101 6z m-2908 -58 c50 -60 56 -90 50
-222 l-6 -121 78 -69 c42 -37 94 -77 115 -87 21 -11 53 -42 72 -68 60 -83 172
-151 250 -151 45 0 108 -33 174 -91 l42 -37 -49 -58 c-56 -67 -120 -128 -174
-164 -21 -14 -40 -31 -43 -38 -7 -20 40 -75 158 -188 167 -159 207 -180 192
-101 -8 41 -17 50 -91 92 -63 35 -184 134 -184 150 0 6 56 66 123 133 l124
122 49 0 c83 0 188 -75 231 -165 14 -29 14 -35 -1 -66 -9 -19 -75 -107 -146
-196 -91 -114 -144 -172 -177 -192 -52 -32 -61 -29 -62 27 -1 12 -8 39 -17 60
-26 62 -38 19 -30 -107 8 -121 1 -138 -64 -171 -22 -11 -41 -20 -43 -20 -2 0
15 79 39 177 24 97 44 180 44 184 0 4 -35 50 -78 101 -115 137 -204 256 -250
334 -47 82 -94 114 -165 114 -56 0 -72 -17 -62 -66 5 -27 2 -41 -11 -55 -17
-19 -17 -23 5 -90 25 -79 23 -99 -14 -99 -22 0 -25 4 -25 38 0 20 -7 78 -14
127 -8 50 -22 153 -31 229 -20 175 -31 219 -62 248 l-26 23 7 -90 c15 -220
109 -664 171 -812 l16 -38 14 33 c8 17 18 32 24 32 18 0 51 -52 51 -81 0 -29
35 -71 100 -121 l35 -27 -53 -1 c-71 0 -88 11 -117 76 -13 29 -29 54 -34 54
-6 0 -11 -4 -11 -8 0 -15 37 -117 55 -152 l17 -33 18 24 c18 23 18 23 41 4 45
-41 199 -226 199 -240 0 -17 -56 -55 -82 -55 -21 0 -53 43 -104 138 -21 40
-40 69 -42 64 -5 -15 75 -191 103 -228 17 -22 35 -34 50 -34 56 0 74 -28 30
-48 -36 -17 -131 -27 -138 -15 -4 6 1 29 10 53 l17 43 -27 23 c-52 44 -52 43
-122 -236 -47 -187 -71 -248 -59 -155 3 28 24 140 45 251 21 110 39 222 39
250 0 49 -27 151 -54 201 -12 24 -14 25 -19 7 -4 -10 -11 -71 -17 -134 -14
-153 -26 -218 -38 -205 -4 4 -9 149 -12 323 -5 297 -14 393 -31 317 -4 -16 -7
-61 -8 -98 -1 -50 -4 -68 -13 -65 -7 3 -16 21 -19 42 -3 20 -17 49 -31 64 -14
15 -40 49 -58 76 -71 105 -96 111 -159 36 -23 -28 -47 -48 -52 -45 -16 10 -10
150 12 288 16 104 19 154 14 235 l-7 104 33 35 c19 19 62 57 97 85 34 28 69
63 77 78 8 16 21 71 29 124 8 52 17 100 21 106 3 5 19 10 36 10 16 0 29 3 29
7 0 3 -12 31 -27 62 -32 68 -44 171 -20 171 8 0 28 -15 43 -32z m2795 -143
c78 -71 182 -135 221 -135 47 0 0 -50 -85 -91 -77 -36 -118 -37 -188 -2 -54
26 -209 174 -209 199 0 11 108 86 140 97 31 11 42 5 121 -68z m-2632 -58 c101
-84 143 -155 122 -210 -33 -85 -168 65 -188 208 -3 28 -2 45 5 45 5 0 33 -19
61 -43z m2400 -98 c53 -57 90 -89 130 -108 40 -19 56 -32 56 -46 0 -45 -141
-87 -303 -89 -89 -1 -107 8 -217 109 -56 51 -59 56 -41 67 47 31 272 148 286
148 8 0 48 -36 89 -81z m-2159 -111 c19 -12 67 -38 105 -59 81 -41 115 -83
115 -139 0 -48 -19 -64 -69 -57 -46 6 -140 64 -168 103 -37 52 -58 174 -30
174 6 0 28 -10 47 -22z m4120 -15 c0 -8 18 -53 40 -100 42 -91 46 -103 30
-103 -7 0 -192 120 -209 136 -8 7 51 62 82 77 34 17 57 13 57 -10z m-4680 9
c0 -10 -80 -87 -180 -173 -98 -85 -149 -123 -156 -116 -12 11 37 66 133 149
140 121 203 165 203 140z m2366 -73 c57 -39 107 -76 111 -82 9 -16 -33 -45
-90 -62 -77 -23 -198 -39 -232 -31 -38 10 -135 106 -135 134 0 12 11 29 25 38
22 14 184 71 208 73 5 1 55 -31 113 -70z m-383 -91 c40 -57 87 -139 87 -152 0
-9 -102 -35 -187 -47 -77 -10 -84 -10 -116 10 -39 24 -87 88 -87 117 0 10 -9
34 -20 52 -11 18 -20 34 -20 36 0 8 61 18 179 31 64 7 117 13 118 14 1 0 21
-27 46 -61z m-1050 5 c78 -32 103 -38 169 -38 103 0 109 -7 116 -124 l5 -90
-27 -7 c-64 -16 -256 56 -308 114 -51 59 -84 153 -61 175 9 10 3 11 106 -30z
m3285 -88 c47 -46 83 -87 79 -91 -9 -9 -142 101 -175 144 -21 27 -22 32 -7 32
9 0 56 -38 103 -85z m-2624 46 c9 -10 32 -55 51 -100 l35 -82 -48 -20 c-116
-50 -263 -64 -318 -30 -56 34 -80 123 -53 200 13 36 24 40 139 44 47 2 106 4
131 5 34 1 50 -3 63 -17z m-1797 -168 c-9 -123 -46 -334 -63 -360 -8 -14 -25
-23 -39 -23 -21 0 -25 6 -30 44 -4 25 -5 102 -3 173 4 145 9 157 85 217 26 20
48 36 51 36 3 0 2 -39 -1 -87z m-185 -3 c4 -19 13 -117 19 -217 14 -207 12
-221 -48 -252 -21 -11 -112 -76 -203 -145 -91 -68 -168 -121 -171 -118 -10 10
-13 133 -11 365 l2 199 28 26 c52 48 321 184 357 179 13 -1 22 -13 27 -37z
m768 -105 c0 -17 -36 -20 -45 -5 -4 6 -4 18 -1 26 4 12 10 13 26 4 11 -6 20
-17 20 -25z m3570 -51 c0 -14 -26 -53 -62 -92 -59 -65 -63 -80 -43 -156 15
-54 16 -70 6 -95 -18 -41 -56 -75 -77 -67 -15 6 -16 17 -11 94 10 139 28 185
102 259 56 56 85 75 85 57z m1263 -186 c45 -56 89 -144 85 -171 -4 -27 -49
-52 -60 -34 -4 7 -8 27 -8 45 0 37 -31 61 -106 82 -59 17 -71 33 -49 66 15 24
18 24 34 10 27 -24 41 -19 41 14 0 43 22 38 63 -12z m-2263 -21 c0 -7 -32 -59
-70 -116 -39 -57 -70 -107 -70 -112 0 -4 24 -2 54 5 49 12 104 38 167 79 l27
18 142 -150 c78 -82 148 -158 156 -169 15 -22 22 -8 -162 -303 -44 -70 -96
-154 -116 -188 -20 -34 -41 -61 -47 -61 -10 0 -203 229 -229 273 -19 31 -28
11 111 237 151 244 157 254 157 262 0 16 -51 7 -177 -30 -211 -64 -205 -64
-148 14 20 27 65 94 102 149 36 55 71 103 77 107 13 8 26 1 26 -15z m420 8 c0
-14 -32 -66 -37 -61 -8 7 17 66 28 66 5 0 9 -2 9 -5z m1644 -36 c-7 -12 -54
-12 -54 1 0 16 34 29 47 18 7 -6 10 -14 7 -19z m-3763 -96 c-18 -37 -62 -119
-98 -181 -36 -62 -62 -116 -59 -119 8 -8 56 37 56 53 0 6 7 17 16 24 23 20 42
-5 59 -76 7 -32 30 -101 49 -153 l36 -93 -112 -117 c-62 -65 -145 -162 -184
-217 -39 -54 -75 -99 -79 -99 -5 0 -30 29 -54 65 -47 67 -129 154 -216 227
l-50 42 26 23 c14 13 60 49 101 82 42 32 80 68 86 80 5 12 49 66 98 120 152
170 235 267 291 344 30 40 57 71 60 68 3 -3 -9 -36 -26 -73z m3713 46 c38 -30
32 -63 -12 -67 -43 -4 -62 12 -62 54 0 29 3 34 24 34 13 0 35 -10 50 -21z
m-5220 -6 c4 -9 7 -107 7 -217 0 -181 -2 -204 -21 -240 -11 -23 -30 -68 -42
-100 -13 -33 -28 -61 -35 -63 -7 -3 -19 12 -27 31 -18 44 -40 54 -66 31 -19
-17 -19 -16 -13 21 3 22 16 71 30 109 14 39 34 99 45 135 11 36 28 74 39 85
14 16 17 30 13 57 -8 48 1 95 26 136 22 36 35 40 44 15z m3013 1 c9 -24 -18
-68 -116 -190 -98 -122 -121 -145 -121 -122 0 23 53 96 134 187 42 46 76 89
76 96 0 7 -10 20 -22 28 -23 16 -23 16 10 16 21 1 35 -5 39 -15z m2087 -13
c10 -16 -23 -33 -50 -27 -21 6 -24 9 -14 21 14 16 56 20 64 6z m319 -33 c51
-25 48 -54 -5 -51 -76 5 -143 51 -107 74 18 11 63 2 112 -23z m-4697 -70 c24
-47 11 -54 -19 -11 -31 45 -37 74 -11 52 8 -7 22 -26 30 -41z m2078 38 c-8
-20 -130 -69 -226 -90 -46 -10 -32 12 25 40 109 56 213 81 201 50z m2894 -39
c26 -42 8 -57 -119 -97 -116 -37 -268 -108 -348 -162 -55 -38 -264 -209 -313
-256 -43 -41 -50 -62 -13 -38 54 35 59 25 99 -199 15 -77 37 -216 51 -310 39
-264 33 -288 -35 -141 -73 156 -143 392 -167 564 l-8 52 -82 -107 c-44 -60
-91 -127 -103 -151 -22 -41 -22 -45 -6 -95 47 -152 104 -456 112 -602 8 -126
-22 -301 -49 -292 -9 3 -14 70 -18 238 -7 224 -16 329 -40 432 -12 51 -27 65
-23 20 17 -148 35 -406 29 -411 -13 -13 -36 34 -71 143 -43 140 -64 235 -64
305 0 50 4 60 40 104 46 55 48 61 20 46 -35 -19 -218 -275 -206 -288 3 -3 24
9 47 28 34 27 43 30 54 19 7 -8 27 -70 44 -139 17 -69 43 -154 57 -188 14 -35
37 -114 52 -175 22 -96 26 -135 26 -277 1 -140 -2 -173 -19 -220 -15 -42 -25
-55 -40 -55 -19 0 -20 8 -25 130 -5 125 -5 128 -18 88 -7 -24 -17 -43 -22 -43
-6 0 -10 2 -10 5 0 2 -9 147 -20 322 -19 302 -34 461 -45 471 -16 16 -20 -32
-19 -226 0 -164 5 -244 19 -327 26 -149 26 -384 1 -474 -17 -63 -70 -191 -79
-191 -5 0 6 59 27 150 9 36 19 101 22 145 6 73 -7 367 -22 508 -13 113 -24 54
-24 -125 -1 -317 -22 -524 -60 -570 -18 -23 -18 -22 -24 42 -4 36 -11 198 -16
360 -11 322 -15 369 -38 377 -38 15 -56 -67 -72 -322 -14 -225 -24 -283 -69
-390 -21 -49 -42 -101 -46 -115 -11 -37 -45 -81 -57 -74 -14 9 -3 116 33 304
16 85 43 234 58 330 32 191 43 229 88 281 90 105 191 299 154 299 -4 0 -30
-33 -56 -72 -26 -40 -69 -100 -94 -132 -55 -73 -230 -256 -243 -256 -7 0 -9
20 -6 50 6 63 43 124 163 269 142 170 253 372 238 429 -9 36 5 71 32 78 37 9
47 -3 30 -36 -36 -70 -8 -50 50 35 61 89 69 110 90 225 10 52 22 103 27 113
17 32 118 17 118 -18 0 -30 40 -15 70 27 16 22 30 45 30 50 0 4 -42 8 -94 8
-54 0 -98 4 -101 10 -4 6 -1 26 5 44 14 44 50 57 134 49 81 -7 104 4 113 59
10 65 40 88 113 88 37 0 60 -4 60 -11 0 -6 -31 -43 -70 -81 -65 -64 -82 -88
-62 -88 4 0 39 27 77 61 150 129 319 234 490 304 84 35 187 95 201 117 9 14
24 5 42 -25z m-5817 -54 c-6 -21 -18 -47 -26 -58 -15 -19 -16 -17 -11 28 3 26
13 62 23 80 16 29 18 30 21 10 2 -12 -1 -39 -7 -60z m1878 27 c-1 -24 -1 -24
-14 5 -7 17 -11 34 -8 39 8 13 23 -16 22 -44z m-1633 -47 c12 -31 14 -46 6
-56 -14 -16 -32 -159 -33 -262 -1 -67 -2 -75 -11 -50 -5 17 -12 127 -14 245
l-5 215 20 -25 c11 -14 28 -44 37 -67z m4929 57 c0 -16 -8 -29 -25 -37 -27
-14 -116 -18 -124 -5 -2 4 2 22 10 40 13 33 14 33 76 30 60 -3 63 -4 63 -28z
m163 21 c8 -5 12 -23 10 -47 l-3 -39 -55 0 c-49 0 -55 2 -58 22 -7 46 66 90
106 64z m-3032 -32 c19 -11 34 -25 34 -30 0 -5 -18 -20 -40 -34 -38 -24 -40
-28 -40 -73 0 -36 -5 -50 -20 -60 -30 -18 -25 -44 30 -150 66 -129 118 -196
153 -200 28 -3 43 10 222 201 43 45 80 73 128 96 38 18 71 31 73 28 5 -5 -283
-287 -416 -408 -140 -126 -179 -155 -251 -187 -62 -28 -119 -79 -119 -106 0
-18 -45 -57 -126 -108 -90 -58 -116 -93 -118 -161 -1 -40 2 -52 14 -52 10 0
17 15 22 48 12 85 28 76 58 -32 23 -82 88 -231 101 -231 12 0 2 48 -37 173
-19 60 -34 123 -34 141 0 39 27 66 160 161 234 168 420 332 708 624 184 187
234 233 242 221 13 -21 24 -115 16 -145 -8 -30 -22 -32 -29 -4 -8 30 -30 18
-38 -20 -8 -39 -39 -111 -48 -111 -3 0 -19 18 -34 40 -16 22 -33 40 -39 40
-12 0 -6 -272 7 -302 15 -36 23 -16 30 70 7 97 12 122 25 122 17 0 21 -60 10
-166 -14 -134 -18 -154 -35 -148 -10 4 -14 -27 -16 -144 l-4 -149 -87 -100
c-216 -247 -881 -852 -939 -853 -25 0 -109 58 -165 116 -66 67 -108 136 -99
163 3 11 38 55 77 98 104 114 118 135 143 215 l23 73 31 -65 c17 -36 31 -80
31 -97 0 -30 -7 -38 -84 -88 -105 -69 -176 -132 -176 -154 0 -22 40 -41 83
-41 24 0 55 18 129 73 96 72 160 127 187 161 13 15 13 19 0 27 -8 5 -24 9 -36
9 -28 0 -55 35 -83 111 -23 59 -55 100 -119 147 -30 23 -31 25 -30 100 1 42 4
102 7 132 l7 55 17 -45 c12 -28 21 -41 28 -34 5 5 16 113 25 239 15 220 24
282 44 315 19 29 23 -1 12 -88 -18 -145 -26 -362 -13 -362 7 0 12 1 12 3 1 33
37 267 56 370 l27 138 -25 27 c-13 15 -32 37 -42 50 l-19 22 35 0 c22 0 55
-13 94 -37 111 -68 165 -95 179 -89 21 8 18 53 -6 106 -20 42 -39 134 -40 188
-1 13 8 33 19 45 28 31 52 82 52 110 0 42 10 45 56 16z m3205 10 c19 -10 20
-12 4 -29 -21 -23 -113 -63 -130 -56 -20 7 -6 54 23 76 27 22 72 26 103 9z
m-520 -18 c-11 -20 -32 -31 -59 -31 -12 0 -11 5 8 25 29 31 66 35 51 6z
m-3000 -62 c11 -22 18 -46 16 -52 -4 -13 -57 72 -57 92 0 21 19 2 41 -40z
m578 42 c21 -13 4 -31 -30 -31 -32 0 -38 14 -11 29 21 13 24 13 41 2z m-1463
-143 c-18 -75 -37 -141 -40 -147 -15 -23 -23 0 -15 41 4 24 8 66 9 93 1 56 29
128 56 143 11 6 20 9 21 8 1 -1 -13 -63 -31 -138z m-1317 80 c-7 -13 -30 -49
-52 -81 -21 -32 -39 -68 -38 -80 0 -12 3 -55 7 -95 6 -71 -4 -367 -12 -359 -7
7 -44 280 -44 322 1 22 7 49 15 59 23 31 19 47 -10 40 -20 -5 -25 -2 -30 19
-11 43 28 97 125 170 43 33 54 34 39 5z m3520 18 c-33 -31 -185 -100 -200 -90
-14 8 21 32 100 65 56 24 115 39 100 25z m1645 -38 c7 -11 7 -26 0 -45 -9 -27
-13 -28 -123 -41 -62 -7 -120 -11 -128 -8 -22 9 -6 24 37 36 27 7 44 20 59 46
21 35 21 35 82 32 45 -2 65 -8 73 -20z m211 -11 c4 -18 1 -45 -5 -61 -10 -28
-11 -29 -68 -22 -69 8 -98 31 -88 71 8 32 35 44 103 44 51 1 52 0 58 -32z
m162 -4 c3 -6 -11 -19 -29 -28 -18 -10 -40 -26 -49 -38 -20 -24 -39 -15 -39
19 0 38 35 66 77 62 20 -2 38 -8 40 -15z m-2034 -73 c-44 -70 -133 -182 -149
-187 -14 -4 -24 51 -24 129 l0 56 43 16 c96 36 123 45 145 45 21 1 21 -1 -15
-59z m2338 3 c59 -138 123 -393 99 -393 -12 0 -121 164 -179 270 -51 93 -52
123 -8 150 50 31 65 26 88 -27z m-3933 -84 c29 -57 55 -120 59 -139 6 -32 5
-34 -11 -21 -23 19 -60 92 -97 192 -41 113 -16 96 49 -32z m-1158 25 c0 -55
-63 -432 -91 -544 -12 -47 -33 -113 -46 -147 l-25 -63 51 -56 c74 -81 65 -99
-23 -44 -56 36 -89 98 -114 218 -16 78 -16 79 10 158 15 43 36 116 47 161 40
155 109 331 149 376 16 17 17 17 29 1 7 -10 13 -37 13 -60z m1619 -48 c13 -48
21 -89 18 -92 -3 -3 -24 5 -47 17 -40 23 -70 62 -70 93 0 20 50 78 64 73 6 -2
22 -43 35 -91z m-2574 22 c3 -35 17 -132 31 -216 13 -84 24 -158 24 -166 0 -7
-62 -67 -137 -133 -76 -67 -175 -158 -221 -202 -46 -45 -90 -81 -98 -81 -9 0
-14 11 -14 33 0 17 -5 50 -9 72 -9 39 -23 191 -36 380 l-6 90 103 59 c130 75
323 200 332 215 15 24 24 8 31 -51z m1370 51 c9 -13 -3 -59 -14 -59 -13 0 -22
30 -16 51 7 21 20 25 30 8z m3953 -25 c27 -8 30 -41 5 -60 -40 -30 -143 -7
-143 32 0 27 80 43 138 28z m-194 -29 c-3 -19 -49 -45 -108 -60 -33 -8 -62
-13 -64 -10 -10 9 33 48 73 66 41 20 101 22 99 4z m-4389 -228 c-31 -111 -60
-206 -65 -210 -8 -9 -15 30 -26 141 -7 72 -6 74 24 105 17 18 50 70 73 117 28
55 44 79 47 67 2 -10 -22 -109 -53 -220z m5035 213 c25 0 111 -282 138 -450
17 -100 23 -239 15 -300 l-8 -54 -37 111 c-30 87 -38 126 -38 182 0 89 -11
133 -71 291 -56 148 -66 194 -49 216 7 8 20 12 27 9 8 -3 18 -5 23 -5z m-5211
-122 c18 -89 31 -190 31 -251 l0 -57 -35 22 c-49 32 -69 78 -61 142 8 72 38
196 47 196 4 0 12 -24 18 -52z m4523 20 c22 -17 12 -65 -17 -84 -15 -10 -41
-14 -72 -12 -41 3 -50 7 -61 31 -18 36 -28 34 -49 -10 -12 -25 -26 -39 -41
-41 -33 -5 -28 19 16 68 32 36 45 43 92 50 84 12 115 11 132 -2z m-4880 -34
c9 -16 20 -41 23 -56 6 -24 4 -28 -13 -28 -28 0 -44 23 -50 76 -6 54 11 58 40
8z m225 -96 c30 -28 29 -48 -1 -48 -24 0 -36 16 -36 51 0 25 8 24 37 -3z
m3228 -111 c59 -77 75 -107 57 -107 -32 0 -155 160 -167 216 l-7 29 29 -31
c15 -16 55 -65 88 -107z m-1539 31 c-24 -111 -56 -331 -63 -440 -3 -54 -10
-98 -14 -98 -4 0 -20 11 -36 24 -33 29 -34 64 -4 184 12 44 21 91 21 103 0 23
0 23 -15 3 -8 -12 -29 -56 -48 -98 l-34 -77 -32 39 c-17 22 -31 48 -31 59 0
10 39 70 86 133 107 144 108 145 100 97 -11 -63 11 -34 24 31 11 54 47 128 57
118 3 -2 -2 -37 -11 -78z m2923 48 c19 -23 9 -67 -20 -89 -15 -10 -47 -22 -73
-24 l-46 -6 0 32 c0 44 16 70 53 86 42 18 72 18 86 1z m-193 -42 c10 -52 -9
-86 -44 -82 -24 3 -27 8 -30 41 -6 73 61 110 74 41z m-805 -142 c-16 -83 -35
-160 -41 -172 l-12 -22 -24 23 c-13 12 -24 33 -24 46 0 32 121 304 128 285 1
-5 -11 -77 -27 -160z m-3837 73 c8 -38 18 -80 22 -92 5 -19 2 -23 -14 -23 -27
0 -32 18 -31 118 1 97 2 97 23 -3z m1744 -33 c-36 -53 -84 -121 -107 -149 -41
-53 -66 -69 -54 -35 21 57 214 314 221 293 2 -7 -25 -56 -60 -109z m2027 46
c-11 -47 -44 -110 -55 -103 -16 10 -12 46 11 92 25 53 54 60 44 11z m-2743
-97 c-4 -50 6 -64 67 -93 l46 -22 -45 -4 c-76 -6 -109 5 -132 44 -19 32 -21
33 -34 17 -13 -16 -14 -15 -8 12 9 39 22 55 45 55 10 0 23 9 29 21 18 33 35
17 32 -30z m3785 13 c14 -38 -52 -104 -104 -104 -19 0 -23 5 -23 33 0 42 23
75 58 80 53 8 63 7 69 -9z m-4399 -20 c7 -5 -57 -34 -76 -34 -26 0 -36 27 -15
39 14 8 80 4 91 -5z m4210 -20 c4 -42 -31 -86 -67 -82 -24 3 -26 6 -23 43 6
72 83 106 90 39z m-1385 -32 l20 -53 -23 -24 c-13 -14 -27 -25 -32 -25 -4 0
-8 36 -8 81 0 94 13 101 43 21z m-1873 14 c0 -27 -24 -51 -40 -41 -16 10 -12
53 7 64 23 12 33 5 33 -23z m2204 5 c17 -19 17 -22 -9 -69 -32 -58 -81 -115
-94 -108 -4 3 -11 29 -14 58 -3 29 -9 67 -13 85 -6 32 -6 32 28 27 24 -4 38
-1 47 10 18 21 34 20 55 -3z m-2114 -67 c18 -47 11 -91 -30 -172 -47 -93 -70
-119 -70 -78 0 14 9 70 21 124 31 141 57 184 79 126z m-1424 -5 c7 -12 -13
-29 -36 -29 -23 0 -43 17 -36 29 4 6 20 11 36 11 16 0 32 -5 36 -11z m3314
-30 c0 -36 -2 -40 -15 -29 -18 15 -19 42 -3 58 17 17 18 16 18 -29z m-2425
-11 c-13 -73 -24 -89 -24 -36 -1 52 6 78 21 78 6 0 7 -17 3 -42z m-445 -132
c11 -52 11 -70 1 -95 -18 -42 -40 -59 -52 -40 -11 14 -5 198 8 253 l6 30 12
-42 c7 -23 18 -70 25 -106z m-223 78 c17 -59 15 -124 -7 -173 -20 -43 -20 -44
-1 -75 11 -17 31 -42 45 -55 27 -25 33 -41 16 -41 -13 0 -87 77 -117 123 l-26
37 27 38 c23 33 26 48 26 116 0 87 16 100 37 30z m4361 3 c5 -38 -15 -59 -51
-55 -42 4 -55 29 -33 63 14 21 24 26 49 23 27 -2 33 -8 35 -31z m-123 13 c3
-5 -1 -23 -9 -39 -18 -33 -83 -63 -143 -65 -32 -1 -38 3 -47 27 -17 47 1 61
85 69 41 5 78 10 84 12 17 7 24 6 30 -4z m-1239 -46 c9 -35 -12 -56 -31 -30
-10 13 -11 24 -4 37 14 26 27 24 35 -7z m432 -120 c67 -70 125 -138 129 -152
4 -19 -1 -29 -24 -48 -43 -33 -67 -98 -128 -333 -29 -113 -59 -221 -67 -240
l-14 -34 -94 85 c-94 85 -219 217 -252 267 -27 39 -22 64 27 143 25 40 45 78
45 84 0 7 17 33 38 58 21 25 60 83 87 129 69 118 104 167 118 167 7 0 67 -57
135 -126z m-1968 -2 c63 -64 142 -148 174 -185 l59 -67 -52 -58 c-89 -99 -215
-254 -275 -339 -89 -125 -82 -122 -157 -67 -35 26 -106 89 -158 140 -91 92
-94 95 -88 131 9 53 79 187 169 324 77 117 180 239 201 239 6 0 63 -53 127
-118z m-420 10 c-5 -22 -19 -51 -30 -64 -19 -23 -19 -23 -20 -2 0 27 26 102
43 122 11 13 12 13 15 -1 2 -8 -2 -33 -8 -55z m1893 20 c15 -16 15 -20 -3 -47
-11 -17 -20 -40 -20 -52 0 -12 -7 -29 -16 -38 -19 -18 -33 -71 -35 -130 -1
-22 -6 0 -10 49 -5 50 -16 100 -24 113 -19 28 -11 47 40 92 41 36 46 37 68 13z
m1431 -7 c3 -9 -8 -30 -28 -53 -18 -20 -54 -71 -81 -112 -46 -72 -160 -214
-204 -254 l-21 -19 0 116 0 116 58 12 c90 19 127 42 146 89 9 22 16 47 16 56
0 45 99 87 114 49z m-3738 -111 c-3 -8 -10 -14 -16 -14 -14 0 -13 63 3 97 12
27 12 27 15 -21 2 -27 1 -55 -2 -62z m3567 61 c-1 -16 -12 -38 -23 -47 -23
-19 -130 -61 -137 -54 -3 2 -1 28 4 57 10 64 33 80 108 77 49 -3 50 -4 48 -33z
m-3923 -49 c0 -7 -7 -19 -16 -27 -9 -7 -29 -39 -45 -71 -31 -61 -63 -88 -82
-69 -8 8 -5 15 11 27 12 8 34 36 49 62 43 76 83 113 83 78z m2813 -20 c7 -19
-18 -42 -28 -26 -8 13 1 40 14 40 5 0 11 -6 14 -14z m-1979 -8 c-21 -37 -186
-268 -191 -268 -3 0 -3 35 0 79 8 126 37 167 134 190 55 13 65 13 57 -1z
m-983 -8 c10 -6 19 -17 19 -25 0 -22 -47 -19 -59 4 -16 30 4 40 40 21z m2889
-98 c0 -11 -59 -100 -71 -108 -10 -6 -13 99 -2 109 9 10 73 9 73 -1z m-212
-207 c-2 -139 -6 -167 -20 -182 -26 -25 -31 -11 -19 47 6 28 11 77 11 108 0
90 12 192 22 192 6 0 8 -66 6 -165z m752 42 c0 -82 -42 -371 -62 -419 -15 -39
-32 -36 -24 5 4 17 18 113 32 212 34 245 34 245 44 245 6 0 10 -19 10 -43z
m-1729 -145 c-24 -34 -50 -57 -56 -50 -10 10 6 33 38 55 42 28 42 28 18 -5z
m1624 -129 c-9 -62 -20 -113 -23 -113 -7 0 7 154 20 213 20 87 21 22 3 -100z
m-407 45 c-5 -32 -28 -35 -28 -4 0 17 5 26 16 26 10 0 14 -7 12 -22z m1291
-95 c-1 -65 -4 -156 -8 -203 -7 -70 -8 -48 -9 118 -1 129 2 202 8 202 6 0 10
-45 9 -117z m-1196 -32 c-7 -30 -49 -90 -68 -97 -15 -6 -65 23 -65 37 0 5 18
18 40 29 27 14 45 32 56 58 14 35 16 36 29 18 9 -12 12 -30 8 -45z m-3531 14
c125 -26 196 -54 408 -161 238 -120 370 -193 370 -206 0 -14 -33 -1 -164 66
-194 100 -381 173 -576 226 -130 35 -220 68 -220 81 0 14 100 11 182 -6z
m2016 -102 c49 -43 138 -116 200 -163 76 -58 111 -91 112 -105 0 -11 -23 -69
-50 -129 -28 -60 -57 -139 -65 -175 -25 -104 -54 -194 -75 -229 -15 -25 -27
-32 -51 -32 -41 0 -132 49 -206 111 -32 27 -100 76 -150 110 -108 73 -105 52
-33 229 96 234 205 460 222 460 5 0 48 -35 96 -77z m-258 43 c0 -15 -18 -31
-26 -23 -7 7 7 37 17 37 5 0 9 -6 9 -14z m-2005 -102 c-30 -103 -77 -176 -91
-141 -6 16 36 129 69 184 30 52 43 27 22 -43z m238 50 c30 -9 19 -20 -52 -53
-89 -41 -141 -51 -141 -26 0 17 35 73 55 88 10 7 101 1 138 -9z m4517 10 c0
-4 -20 -106 -45 -228 -24 -122 -47 -247 -51 -279 -4 -32 -11 -60 -17 -64 -20
-12 8 299 38 422 17 68 54 155 67 155 4 0 8 -3 8 -6z m-4360 -69 c17 -21 4
-51 -28 -63 -15 -5 -56 -21 -92 -35 -59 -23 -67 -24 -82 -9 -10 8 -18 21 -18
28 0 24 137 92 186 94 12 0 27 -7 34 -15z m5079 -238 c-7 -15 -37 -47 -68 -71
-56 -42 -142 -96 -154 -96 -4 0 -7 15 -7 33 0 48 23 74 72 82 89 14 95 20 128
161 12 49 25 96 28 104 13 28 13 -183 1 -213z m-4882 156 c6 -17 -35 -41 -114
-68 -114 -38 -130 -40 -143 -15 -17 32 -1 43 76 51 48 5 72 12 88 28 23 24 86
26 93 4z m-466 -33 c44 -44 58 -49 115 -43 50 5 51 5 74 -33 32 -52 36 -54 86
-37 58 20 85 14 97 -20 11 -34 -5 -57 -38 -57 -13 0 -94 25 -182 56 -87 30
-185 64 -217 73 -33 10 -61 22 -63 28 -5 15 55 63 79 63 11 0 33 -13 49 -30z
m4459 -39 c-12 -23 -30 -28 -30 -8 0 7 8 24 17 37 15 21 18 22 21 8 2 -9 -2
-26 -8 -37z m-3791 -5 c15 -18 5 -24 -53 -32 -36 -5 -46 -4 -46 8 0 8 5 19 12
26 16 16 73 15 87 -2z m-165 -22 c9 -8 16 -18 16 -20 0 -18 -24 -43 -51 -54
-26 -11 -32 -11 -40 1 -10 16 -12 73 -2 82 12 13 62 7 77 -9z m321 -56 c27
-12 34 -38 11 -38 -16 0 -46 26 -46 41 0 12 4 11 35 -3z m-79 -29 c23 -26 7
-43 -67 -68 l-60 -20 -8 22 c-26 70 -25 75 33 87 44 8 82 1 102 -21z m434 -75
c146 -81 214 -124 490 -314 152 -105 464 -262 590 -296 101 -28 144 -49 135
-64 -34 -56 -399 108 -741 333 -104 68 -270 175 -369 237 -326 205 -377 256
-105 104z m3291 84 c0 -2 4 -102 9 -223 6 -150 14 -239 26 -280 34 -126 34
-121 2 -170 -16 -25 -32 -45 -35 -45 -2 0 -14 21 -25 48 -19 41 -22 71 -26
223 -6 220 14 449 39 449 5 0 9 -1 10 -2z m425 -285 c8 -63 -9 -73 -26 -15
-14 50 -40 220 -39 257 1 36 55 -167 65 -242z m-4342 225 c22 -31 20 -45 -9
-64 -34 -22 -75 -12 -75 19 0 31 27 67 50 67 10 0 26 -10 34 -22z m-676 -42
c10 -122 -173 -470 -331 -628 -76 -76 -123 -106 -140 -89 -17 17 19 82 102
186 40 50 98 128 129 175 62 94 172 301 172 325 0 41 -34 -2 -110 -140 -89
-160 -237 -326 -352 -394 -117 -68 -282 -119 -322 -98 -19 9 -19 10 3 28 12
10 46 27 76 38 242 91 415 246 589 528 31 51 65 97 74 103 9 5 37 9 62 7 45
-2 45 -2 48 -41z m124 -18 c-3 -74 -52 -263 -96 -373 -93 -231 -264 -402 -408
-408 -59 -3 -56 19 7 56 28 16 63 41 79 55 96 89 250 358 302 530 36 118 80
204 102 200 14 -3 17 -14 14 -60z m287 26 c36 -20 163 -100 281 -177 202 -133
398 -257 640 -405 199 -122 685 -349 885 -414 105 -34 140 -34 243 1 123 41
135 40 169 -10 20 -31 24 -42 14 -48 -13 -9 -76 1 -142 20 -39 12 -61 7 -43
-10 24 -23 354 -116 591 -167 100 -22 152 -27 347 -31 354 -9 562 26 773 127
59 28 113 48 121 45 26 -10 -15 -42 -96 -76 -266 -110 -603 -165 -869 -141
-179 16 -282 35 -558 104 -580 143 -865 238 -1155 383 -195 97 -332 157 -342
147 -5 -5 -13 -47 -18 -94 -10 -97 -40 -271 -46 -265 -8 8 -44 284 -44 339 0
43 4 59 17 67 15 8 15 11 3 26 -19 23 -199 141 -277 181 -35 18 -73 43 -86 55
-12 11 -117 90 -233 175 -263 193 -321 248 -175 168z m678 10 c25 -38 2 -66
-74 -88 -18 -6 -23 -1 -33 29 -10 30 -9 40 4 60 23 36 79 35 103 -1z m3383 12
c0 -16 -36 -63 -43 -56 -3 3 1 20 8 38 14 32 35 44 35 18z m430 -48 c6 -35 15
-119 20 -188 5 -75 18 -155 31 -200 19 -65 22 -100 23 -270 1 -268 -30 -401
-114 -490 -48 -50 -48 -25 -2 77 23 49 48 115 57 148 22 85 30 260 16 400 -14
138 -26 195 -45 195 -12 0 -103 -178 -130 -257 -24 -68 -3 -50 44 37 23 43 51
87 61 96 33 30 42 -20 36 -216 -8 -244 -29 -316 -127 -423 -60 -66 -80 -74
-126 -52 -19 9 -43 13 -54 10 -38 -12 -21 24 46 96 75 83 142 191 184 302 34
87 49 167 32 167 -15 0 -30 -30 -49 -93 -19 -67 -83 -187 -136 -255 -51 -66
-109 -107 -212 -149 -44 -18 -84 -39 -89 -47 -14 -21 10 -46 44 -46 35 0 40
-14 74 -210 47 -273 116 -450 174 -450 13 0 14 21 9 148 -7 165 -25 287 -58
398 -12 41 -19 77 -16 80 12 13 27 -9 56 -86 54 -138 61 -186 61 -409 l0 -204
60 -54 c65 -59 72 -73 38 -73 -77 1 -233 139 -300 266 -46 87 -64 156 -78 304
-23 252 -35 236 -50 -66 -12 -231 -26 -345 -45 -351 -7 -2 -10 69 -10 204 0
115 -4 282 -9 373 l-8 165 31 43 c34 46 53 57 116 67 27 5 50 18 73 42 63 67
201 287 189 300 -3 2 -22 -17 -43 -44 -78 -97 -200 -209 -257 -237 -63 -29
-117 -43 -117 -30 0 27 46 77 97 106 67 38 207 168 230 213 8 16 42 57 75 91
l59 61 -15 89 c-25 138 -22 186 14 235 16 23 43 76 59 119 40 103 53 130 61
130 4 0 13 -28 20 -62z m-4644 6 c19 -74 -35 -241 -121 -380 -62 -99 -86 -96
-49 7 8 24 33 118 55 208 22 91 44 170 50 178 20 23 58 16 65 -13z m646 -21
c33 -30 22 -65 -37 -109 -18 -13 -16 -14 28 -8 55 7 77 -5 77 -45 0 -32 -8
-44 -37 -60 -44 -23 -120 45 -139 124 -4 17 -14 40 -22 52 -14 22 -12 24 29
43 54 24 77 25 101 3z m1718 -106 c0 -70 -20 -137 -41 -137 -8 0 -10 13 -5 43
4 23 10 83 13 132 6 85 7 88 19 60 7 -16 13 -61 14 -98z m-1342 72 c48 -16 47
-35 -3 -59 -25 -12 -53 -20 -62 -18 -37 7 -22 88 16 88 10 0 32 -5 49 -11z
m4168 -54 c112 -127 163 -205 134 -205 -32 0 -220 225 -220 264 0 22 37 -4 86
-59z m-4730 38 c17 -23 18 -43 0 -43 -20 0 -39 27 -32 45 7 20 16 19 32 -2z
m418 -19 c9 -4 16 -18 16 -34 0 -23 -7 -31 -49 -49 -61 -26 -91 -27 -92 -3 -2
30 3 57 13 69 15 18 82 28 112 17z m3221 -46 c-4 -18 -28 -87 -52 -153 -25
-66 -53 -159 -63 -206 -13 -64 -24 -92 -44 -112 -14 -14 -26 -37 -26 -52 0
-30 -17 -32 -80 -10 -65 23 -82 19 -130 -30 -48 -49 -89 -59 -126 -30 -18 15
-18 16 16 46 61 52 186 109 241 109 57 0 60 4 114 159 54 155 130 311 151 311
3 0 2 -15 -1 -32z m132 -171 c8 -230 -2 -248 -99 -186 -27 17 -52 29 -55 25
-10 -10 40 -50 130 -103 42 -25 77 -51 77 -57 0 -18 -57 -76 -75 -76 -9 0 -31
11 -49 25 -18 14 -53 36 -77 48 -40 21 -44 27 -47 65 -6 78 54 257 133 398 31
54 39 64 47 50 5 -9 12 -94 15 -189z m-226 151 c-13 -10 -46 -25 -74 -33 -81
-24 -281 -17 -239 9 5 3 49 5 98 5 72 -1 101 4 154 24 70 27 97 25 61 -5z
m924 -2 c43 -66 89 -424 83 -636 -5 -123 -9 -157 -32 -224 -32 -94 -79 -168
-163 -256 l-62 -65 -1 51 c0 40 9 70 44 142 88 181 120 324 121 542 0 142 -18
280 -36 280 -12 0 -10 27 -18 -270 -7 -260 -8 -266 -36 -335 -34 -83 -90 -189
-110 -205 -29 -24 -35 1 -11 43 45 79 85 311 106 624 10 159 18 196 44 206 10
4 16 19 16 41 0 41 15 86 30 86 5 0 17 -11 25 -24z m-4696 -94 c-11 -102 -52
-298 -80 -382 -38 -118 -89 -213 -104 -198 -12 12 51 334 90 461 72 236 113
289 94 119z m891 72 c18 -47 13 -61 -32 -78 -67 -25 -90 -24 -104 3 -17 33 -4
63 37 83 51 27 87 24 99 -8z m105 0 c21 -21 1 -38 -28 -23 -14 8 -16 13 -6 25
14 17 14 17 34 -2z m-895 -92 c0 -77 -32 -211 -85 -357 -37 -104 -141 -325
-169 -360 -15 -19 -15 -17 -16 31 0 39 5 55 21 70 72 65 154 300 194 558 9 55
21 108 26 118 18 33 29 9 29 -60z m610 31 c29 -37 22 -54 -35 -85 -61 -34 -79
-35 -99 -6 -30 43 -21 67 37 93 65 31 71 31 97 -2z m-1705 -20 c-32 -24 -155
-84 -215 -105 -58 -20 -225 -36 -257 -24 -17 7 -17 8 0 17 9 6 59 15 109 20
72 7 117 19 205 55 122 49 165 64 173 57 3 -3 -4 -11 -15 -20z m2115 -14 l45
-21 -25 -13 c-53 -27 -68 -27 -86 -1 -17 27 -13 56 8 56 7 0 33 -10 58 -21z
m1035 -83 c20 -101 19 -113 -5 -121 -36 -11 -70 20 -70 63 0 36 45 150 55 140
3 -3 12 -40 20 -82z m2747 17 c153 -148 214 -256 253 -450 4 -20 3 -33 -4 -33
-5 0 -26 50 -46 111 -48 148 -63 177 -143 262 -103 110 -142 156 -142 167 0
18 12 10 82 -57z m-3958 15 c28 -39 20 -53 -44 -81 -65 -28 -74 -25 -101 25
-16 30 -4 46 48 62 66 20 80 19 97 -6z m-178 -63 c18 -44 18 -65 -1 -65 -18 0
-125 52 -125 61 0 5 84 37 103 38 4 1 15 -15 23 -34z m3763 -42 c-1 -55 -3
-70 -9 -53 -12 36 -12 130 0 130 6 0 10 -32 9 -77z m-3226 45 l42 -21 -30 -13
c-45 -19 -83 -17 -95 5 -28 54 9 67 83 29z m3588 -45 c78 -83 147 -200 106
-176 -20 10 -120 124 -158 180 -56 81 -25 79 52 -4z m-3731 23 c29 -31 22 -50
-30 -76 -31 -16 -45 -18 -60 -10 -11 6 -20 15 -20 20 0 4 -3 15 -6 24 -8 20
42 66 71 66 12 0 32 -11 45 -24z m2480 -31 c0 -50 -384 -237 -570 -278 -80
-18 -130 -21 -310 -21 -188 -1 -226 2 -301 21 -160 41 -406 150 -396 177 6 14
1 16 209 -60 244 -88 271 -94 474 -94 287 0 403 30 689 177 99 50 186 92 193
92 6 1 12 -6 12 -14z m-2636 -26 c14 -11 26 -27 26 -35 0 -47 -192 -44 -207 3
-3 7 21 20 59 32 80 25 90 25 122 0z m425 -15 c37 -47 26 -61 -67 -90 -66 -20
-70 -18 -87 23 -18 43 -15 47 51 73 65 25 79 25 103 -6z m-226 -56 c25 -13 46
-38 47 -55 0 -28 -118 -44 -140 -18 -17 20 -5 60 22 73 30 14 45 14 71 0z
m373 -9 c19 -11 34 -27 34 -34 0 -17 -33 -28 -58 -21 -16 5 -52 54 -52 70 0
13 45 5 76 -15z m-517 -41 c5 -13 7 -26 4 -30 -7 -13 -37 -9 -63 9 l-24 17 30
13 c40 17 43 16 53 -9z m431 -24 c0 -19 -61 -45 -111 -47 -52 -3 -51 13 1 41
52 26 110 30 110 6z m226 -29 c13 -33 -45 -69 -205 -125 l-94 -34 -23 28 c-13
15 -24 32 -24 39 0 14 261 104 308 106 21 0 35 -4 38 -14z m-416 -56 c34 -66
25 -72 -54 -39 -38 16 -74 34 -79 39 -9 9 61 39 95 40 11 1 26 -15 38 -40z
m2500 31 c34 -18 42 -46 26 -85 -17 -41 -23 -42 -75 -15 -47 23 -53 37 -35 78
14 34 46 42 84 22z m-1711 -14 c10 -12 9 -17 -6 -24 -22 -11 -43 -5 -43 13 0
12 13 22 31 24 4 1 12 -5 18 -13z m-1243 -22 c10 -41 -3 -197 -26 -309 -33
-164 -119 -419 -136 -403 -9 9 24 192 60 331 34 133 56 272 56 360 0 40 3 47
20 47 13 0 22 -9 26 -26z m1104 0 c22 -9 40 -20 40 -26 0 -18 -97 -53 -138
-49 -16 1 -42 60 -35 78 7 18 84 17 133 -3z m303 -21 c9 -9 17 -29 17 -44 0
-33 -20 -48 -97 -75 -48 -17 -54 -17 -69 -3 -8 9 -18 34 -21 56 -6 44 5 57 64
79 42 15 79 10 106 -13z m1337 12 c16 -8 31 -24 35 -34 7 -24 -29 -99 -52
-108 -18 -7 -83 25 -90 44 -12 32 33 113 63 113 8 0 28 -7 44 -15z m-2597 -65
c34 -1 104 -36 116 -58 25 -47 6 -313 -40 -559 -20 -107 -38 -147 -39 -85 -3
154 -21 542 -26 560 -16 56 -24 -15 -24 -224 0 -122 -5 -268 -11 -325 -11
-112 -46 -231 -78 -262 -19 -20 -20 -20 -10 19 6 21 14 246 18 499 5 253 12
468 16 479 7 16 10 15 32 -13 14 -17 34 -31 46 -31z m2945 39 c3 -17 -43 -43
-59 -34 -15 10 -10 33 9 44 23 14 46 9 50 -10z m-2168 -19 c39 -39 -8 -80 -92
-80 -31 0 -41 -4 -45 -20 -6 -23 -28 -25 -103 -9 -75 16 -64 38 30 65 41 12
95 31 120 42 56 27 65 27 90 2z m596 9 c3 -6 2 -15 -3 -20 -13 -13 -43 -1 -43
17 0 16 36 19 46 3z m869 2 c10 -17 -34 -34 -51 -20 -8 6 -14 15 -14 20 0 12
57 11 65 0z m116 -39 c34 -30 35 -56 6 -97 -15 -19 -15 -19 -50 5 -49 33 -62
65 -42 96 20 32 48 30 86 -4z m-211 -12 c11 -11 20 -27 20 -35 0 -23 -46 -65
-71 -65 -24 0 -89 60 -89 84 0 38 105 51 140 16z m608 -10 c58 -41 65 -59 43
-101 -23 -43 -50 -47 -112 -18 -56 26 -65 42 -43 78 21 33 55 71 64 71 4 0 25
-13 48 -30z m-1260 -8 c5 -33 -35 -74 -68 -70 -32 4 -40 50 -14 79 26 29 78
22 82 -9z m-452 0 c11 -7 34 -45 34 -56 0 -16 -70 -46 -107 -46 -32 0 -46 5
-57 22 -21 30 -20 35 10 63 20 18 38 25 68 25 23 0 46 -4 52 -8z m654 -34 c32
-51 35 -77 14 -93 -35 -26 -62 -18 -84 25 -27 52 -25 66 8 84 37 21 40 20 62
-16z m143 25 c9 -8 -32 -53 -48 -53 -16 0 -57 45 -48 53 3 4 25 7 48 7 23 0
45 -3 48 -7z m166 -78 l43 -47 -34 -25 c-80 -59 -99 -61 -144 -11 -36 39 -38
62 -8 98 31 37 62 51 85 39 8 -4 35 -29 58 -54z m246 8 c39 -40 42 -59 19
-108 -22 -46 -38 -49 -79 -13 -58 50 -61 62 -24 113 18 25 36 45 40 45 5 0 24
-16 44 -37z m225 27 c18 0 70 -53 70 -71 0 -30 -29 -79 -46 -79 -21 0 -100 55
-108 75 -7 19 17 71 36 78 7 3 19 4 26 1 8 -2 17 -4 22 -4z m-1621 -37 c17
-21 31 -41 31 -44 0 -25 -116 -7 -166 26 -30 19 -24 29 26 43 61 18 77 14 109
-25z m492 21 c18 -22 2 -44 -51 -71 -52 -27 -115 -31 -124 -7 -13 33 -4 46 47
69 60 29 109 32 128 9z m-1113 0 c16 -5 22 -14 22 -35 0 -46 -69 -443 -95
-545 -25 -100 -88 -244 -107 -244 -12 0 -9 16 25 131 37 125 77 378 86 540 8
157 13 168 69 153z m1349 -63 c13 -19 22 -39 20 -45 -2 -6 -25 -22 -51 -36
l-48 -25 -29 35 c-39 46 -37 65 9 90 49 26 72 22 99 -19z m-1241 -87 c21 -93
31 -491 15 -593 -17 -111 -46 -157 -70 -113 -7 13 -6 32 4 65 21 69 29 341 14
472 -15 131 -17 213 -6 239 12 30 25 8 43 -70z m166 41 c21 -10 40 -26 43 -36
11 -33 -105 -509 -124 -509 -4 0 -11 89 -14 198 -4 108 -13 238 -21 287 -8 50
-12 93 -10 97 5 8 75 -12 126 -37z m1303 -6 c59 -52 63 -68 26 -101 -17 -15
-37 -28 -45 -28 -18 0 -96 85 -96 105 0 21 36 55 60 55 10 0 35 -14 55 -31z
m880 -6 l49 -37 -42 -18 c-67 -28 -141 -48 -147 -38 -5 8 15 73 35 109 16 31
51 26 105 -16z m-1263 -32 c27 -54 42 -64 81 -57 19 4 46 15 60 26 30 24 55
25 85 4 22 -15 52 -63 52 -84 0 -17 -53 -11 -227 25 -93 20 -192 41 -221 47
-29 6 -49 14 -45 18 20 18 141 60 168 57 23 -1 34 -10 47 -36z m765 -85 l33
-29 38 44 c22 24 51 58 65 74 l25 30 34 -19 c57 -32 89 -67 77 -83 -13 -15
-147 -57 -233 -72 -66 -12 -185 -15 -211 -5 -19 8 -45 55 -45 83 0 11 19 33
48 54 l47 36 45 -42 c25 -23 60 -55 77 -71z m-1423 40 c22 -9 36 -23 40 -40
20 -82 -110 -626 -150 -626 -8 0 3 384 16 549 11 137 20 148 94 117z m123
-155 c-6 -110 -24 -214 -52 -291 -25 -70 -77 -180 -86 -180 -4 0 4 35 17 78
30 92 60 226 69 302 9 82 27 194 32 203 2 4 9 4 15 1 7 -5 9 -42 5 -113z
m1041 87 c23 -23 13 -38 -26 -38 -46 0 -55 6 -41 31 11 21 49 25 67 7z m-901
-20 c4 -7 10 -49 13 -92 3 -45 10 -81 16 -83 16 -5 24 31 24 115 l0 73 38 -6
c97 -16 90 -11 85 -63 -9 -92 -45 -248 -81 -357 l-37 -110 -5 115 c-3 63 -8
108 -12 100 -3 -8 -14 -78 -23 -154 -25 -206 -53 -294 -123 -385 -38 -51 -38
-22 2 56 19 38 39 96 45 128 6 33 12 191 15 350 2 160 7 298 11 308 8 20 21
22 32 5z m2033 -89 c25 -97 70 -342 70 -380 0 -19 -5 -29 -15 -29 -18 0 -37
65 -70 243 -40 223 -30 342 15 166z m-306 64 c16 -54 26 -196 26 -355 0 -100
-2 -179 -5 -176 -25 24 -60 548 -37 548 6 0 13 -8 16 -17z m546 -38 c19 -14
41 -25 51 -25 31 0 40 -28 59 -177 31 -237 29 -240 -46 -88 -88 178 -118 257
-110 289 3 14 8 26 9 26 2 0 18 -11 37 -25z m-2022 3 c17 -17 15 -149 -4 -249
-31 -166 -111 -405 -169 -504 -32 -56 -58 -77 -97 -78 -44 -2 -41 17 17 104
84 128 179 428 191 604 8 115 13 135 32 135 10 0 23 -5 30 -12z m1371 -6 c5
-9 14 -62 20 -117 37 -316 98 -555 198 -767 57 -119 63 -160 23 -138 -26 14
-118 204 -165 340 -47 137 -91 316 -110 452 -16 113 -20 230 -8 241 12 13 32
7 42 -11z m795 -21 c26 -67 58 -240 62 -346 6 -143 -8 -100 -52 155 -20 118
-38 218 -41 223 -2 4 0 7 5 7 6 0 17 -18 26 -39z m-3194 -271 c-12 -203 -21
-248 -51 -272 -26 -22 -109 -25 -109 -4 0 7 13 42 29 77 16 35 45 120 64 189
32 115 42 155 64 265 8 40 8 40 11 -20 2 -33 -1 -139 -8 -235z m2303 255 c4
-8 18 -98 32 -201 28 -204 70 -380 135 -574 54 -159 87 -229 150 -311 75 -99
97 -101 109 -8 l7 54 28 -45 c16 -24 37 -63 47 -85 34 -78 48 -345 18 -345 -5
0 -9 1 -9 3 0 1 -7 40 -15 86 -17 96 -39 146 -79 175 -38 29 -52 6 -26 -43 39
-79 92 -269 82 -299 -6 -18 -50 -14 -71 7 -10 10 -28 51 -41 92 -36 119 -91
209 -127 209 -20 0 -16 -14 22 -83 33 -59 80 -238 67 -252 -12 -12 -60 -4 -75
13 -27 30 -55 104 -63 167 -6 49 -13 66 -39 92 -18 18 -42 33 -54 33 -26 0
-26 -1 -1 -50 44 -87 65 -255 31 -255 -8 0 -29 25 -47 56 -35 59 -155 179
-179 179 -19 0 -19 -14 1 -117 8 -46 14 -97 12 -115 -7 -73 -76 -57 -114 27
-78 172 -89 714 -19 982 14 54 29 228 41 465 l6 127 43 7 c24 3 48 3 53 0 6
-3 13 -63 16 -133 4 -71 13 -203 21 -295 39 -438 -4 -664 -142 -745 -43 -25
-44 -26 -23 -40 12 -8 38 -17 59 -20 34 -5 41 -2 64 28 14 19 42 69 62 111 48
100 58 200 45 449 -10 188 -17 262 -44 429 -16 98 -21 222 -9 233 10 11 20 8
26 -8z m-848 -152 c17 -284 -14 -518 -86 -660 -23 -46 -45 -83 -49 -83 -31 0
-7 123 50 255 45 107 46 122 25 286 -26 198 -58 319 -79 298 -4 -3 1 -57 10
-120 11 -79 15 -156 11 -249 -4 -131 -11 -170 -27 -170 -12 0 -18 35 -31 180
-10 126 -8 229 7 343 l7 47 77 0 78 0 7 -127z m499 111 c42 -42 -10 -576 -64
-662 -9 -13 -10 1 -6 58 15 196 18 363 7 464 -9 94 -9 113 4 133 18 27 37 29
59 7z m121 -12 c7 -32 -9 -290 -26 -406 -20 -145 -57 -266 -118 -391 -69 -140
-104 -185 -166 -215 -71 -34 -91 -3 -30 47 82 66 96 81 130 138 75 126 125
344 145 630 10 148 16 199 27 218 10 17 32 5 38 -21z m-236 -24 c6 -18 16 -85
22 -150 16 -185 -16 -420 -71 -529 -28 -54 -43 -40 -31 27 5 27 13 184 16 349
4 165 12 308 17 318 14 27 35 20 47 -15z m-1464 -163 c-20 -165 -40 -266 -63
-312 -22 -41 -88 -110 -98 -101 -5 6 38 152 118 398 59 183 62 184 43 15z
m2356 -287 c18 -36 21 -58 20 -157 0 -64 -5 -140 -11 -170 -5 -29 -10 -55 -10
-57 0 -17 -22 6 -59 60 -49 73 -50 85 -12 231 12 44 23 92 26 108 7 38 21 34
46 -15z m-2241 -113 c-53 -86 -191 -167 -287 -169 -45 -1 -58 2 -58 14 0 10
15 17 47 21 73 11 164 65 243 146 65 67 70 71 73 48 2 -14 -6 -41 -18 -60z
m-486 -54 c8 -28 7 -36 -9 -47 -26 -19 -65 -18 -65 2 0 9 7 31 16 50 21 43 45
41 58 -5z"/>
<path d="M6075 11698 c-41 -15 -147 -91 -179 -128 -50 -61 -30 -65 76 -15 41
19 110 44 154 56 84 23 144 48 144 60 0 4 -10 15 -22 23 -26 18 -126 20 -173
4z"/>
<path d="M6093 11495 c-70 -19 -123 -42 -123 -53 0 -20 82 -72 114 -72 16 0
96 105 96 127 0 16 -20 16 -87 -2z"/>
<path d="M5770 11247 c0 -9 19 -22 45 -33 52 -19 70 -44 61 -85 -6 -33 4 -37
26 -11 51 59 10 122 -90 138 -34 5 -42 4 -42 -9z"/>
<path d="M8730 9042 c0 -17 38 -43 66 -45 38 -3 44 25 9 41 -30 14 -75 16 -75
4z"/>
<path d="M7688 6023 c-196 -133 -224 -151 -243 -155 -11 -2 -21 -11 -23 -21
-9 -46 101 5 249 115 92 69 121 97 114 109 -9 13 -6 14 -97 -48z"/>
<path d="M8173 6042 c-12 -19 -26 -53 -33 -77 -7 -24 -21 -53 -32 -65 -20 -22
-40 -104 -20 -85 65 63 122 186 110 240 -4 17 -7 15 -25 -13z"/>
<path d="M8500 5982 c0 -22 13 -42 26 -42 20 0 17 14 -6 35 -11 10 -20 13 -20
7z"/>
<path d="M6304 5426 c-8 -21 3 -36 27 -36 15 0 20 6 17 22 -4 27 -35 37 -44
14z"/>
<path d="M8070 5300 c-32 -8 -29 -32 9 -80 41 -51 56 -46 56 19 0 59 -16 74
-65 61z"/>
<path d="M4297 5273 c-10 -9 -9 -43 1 -43 12 0 32 23 32 37 0 14 -22 18 -33 6z"/>
<path d="M4250 5106 c0 -22 3 -27 11 -19 8 8 8 16 0 30 -9 16 -10 14 -11 -11z"/>
<path d="M8994 4705 c-9 -14 -14 -29 -10 -32 7 -7 56 36 56 49 0 18 -31 7 -46
-17z"/>
<path d="M8906 3690 c11 -72 23 -93 23 -39 1 26 -5 53 -14 65 -14 17 -14 15
-9 -26z"/>
<path d="M8920 3516 c0 -42 15 -54 30 -26 13 25 4 60 -16 60 -9 0 -14 -11 -14
-34z"/>
<path d="M7588 1634 c-5 -4 -8 -113 -8 -243 0 -344 -23 -557 -76 -713 -24 -71
-20 -84 20 -74 87 22 124 311 97 757 -14 220 -22 285 -33 273z"/>
<path d="M3639 12526 c-2 -3 -101 -12 -219 -20 -260 -19 -330 -35 -471 -110
-123 -65 -239 -107 -389 -141 -58 -13 -176 -44 -263 -69 -279 -81 -503 -116
-740 -116 -159 0 -202 -3 -442 -34 -66 -9 -192 -19 -280 -24 -140 -7 -166 -11
-205 -31 -169 -90 -177 -93 -469 -181 -152 -46 -191 -95 -141 -177 22 -37 59
-58 115 -68 22 -4 61 -14 88 -23 51 -17 72 -16 314 27 140 25 372 46 410 37
25 -7 26 -9 10 -18 -10 -5 -68 -27 -130 -49 -62 -22 -131 -52 -155 -65 -50
-30 -83 -85 -66 -112 15 -24 104 -27 201 -7 42 9 158 25 257 35 284 30 409 60
445 106 l20 26 118 -7 118 -6 83 40 c46 23 91 41 100 41 9 0 29 -12 45 -27
l28 -28 252 0 252 -1 222 -56 c312 -81 333 -83 462 -59 178 34 256 41 536 50
273 10 304 14 384 55 30 16 32 15 84 -14 30 -16 62 -30 73 -30 21 -1 59 -23
158 -94 68 -49 68 -49 174 -58 136 -11 192 -27 272 -79 93 -60 123 -68 329
-84 185 -14 186 -14 204 7 34 40 19 53 -63 55 -257 9 -361 32 -464 102 -49 34
-58 51 -26 51 32 0 23 19 -12 24 -18 3 -82 7 -143 9 -118 5 -155 15 -230 67
-74 51 -139 79 -199 86 -31 4 -59 11 -62 16 -3 4 9 26 27 49 17 22 28 43 25
47 -4 4 -26 -4 -49 -17 -211 -118 -229 -122 -597 -128 -162 -2 -302 -6 -310
-9 -13 -5 -12 -7 3 -19 16 -11 16 -13 1 -19 -29 -11 -298 -5 -369 8 -38 7
-125 30 -193 50 -124 36 -274 60 -574 91 -208 21 -268 20 -363 -11 -52 -16
-122 -29 -200 -35 -85 -7 -128 -15 -150 -29 -69 -42 -260 -89 -465 -114 -69
-9 -159 -24 -200 -34 -123 -31 -140 -33 -140 -17 0 28 62 59 232 116 100 33
229 96 235 115 12 37 -366 28 -657 -16 -153 -23 -160 -23 -160 -12 0 12 47 25
260 72 221 48 290 67 290 80 0 18 -74 10 -300 -35 -123 -24 -227 -42 -229 -39
-12 11 32 25 238 74 402 97 389 92 356 136 -20 26 -19 52 3 58 54 17 323 36
518 36 356 0 478 17 879 121 354 92 480 134 655 222 l145 72 205 6 c143 4 227
11 276 23 82 20 96 17 279 -49 75 -27 111 -35 146 -32 44 4 109 38 109 57 0 5
-19 14 -42 20 -24 6 -116 36 -206 66 -106 35 -180 54 -211 54 -26 0 -50 -2
-52 -4z m-2749 -575 c0 -13 -27 -21 -71 -21 -42 0 -53 16 -16 23 41 8 87 7 87
-2z m-170 -31 c0 -5 -9 -10 -20 -10 -11 0 -20 5 -20 10 0 6 9 10 20 10 11 0
20 -4 20 -10z m90 -60 c11 -7 9 -11 -13 -19 -16 -6 -41 -11 -57 -11 -48 0
-166 -28 -361 -85 -180 -53 -236 -65 -225 -46 8 13 155 65 304 107 193 56 319
75 352 54z"/>
<path d="M5065 12313 c-22 -8 -62 -16 -90 -17 -45 -1 -50 -4 -47 -23 3 -23 -4
-27 -73 -38 -76 -12 -217 -59 -223 -73 -7 -19 61 -82 88 -82 12 0 24 9 30 24
10 28 54 64 89 73 34 9 92 -9 213 -63 93 -42 112 -47 197 -52 76 -4 93 -2 89
9 -2 7 -33 21 -69 30 -84 22 -106 31 -170 72 -30 19 -64 37 -76 41 -13 4 -23
11 -23 16 0 10 112 64 153 74 15 4 25 11 22 16 -9 14 -64 11 -110 -7z"/>
<path d="M3780 12252 c0 -4 18 -25 40 -46 53 -50 81 -99 128 -229 52 -141 82
-187 122 -187 35 0 36 6 13 55 -13 27 -14 43 -7 72 5 20 14 38 20 40 6 2 21
-20 35 -49 76 -163 139 -187 332 -125 l79 25 56 -52 c79 -72 161 -132 205
-151 21 -8 66 -15 105 -15 99 0 185 44 281 145 99 104 93 126 -10 39 -24 -20
-69 -49 -99 -63 -48 -23 -67 -26 -155 -25 -168 1 -260 52 -328 182 -38 71 -50
82 -93 82 -32 0 -30 -15 6 -70 l30 -45 -58 -8 c-31 -4 -92 -7 -134 -5 -70 3
-80 6 -108 33 -17 16 -45 52 -62 80 -64 102 -96 118 -126 65 -9 -16 -20 -30
-24 -30 -4 0 -26 36 -48 79 -44 88 -85 140 -144 183 -40 28 -56 34 -56 20z"/>
<path d="M5363 11957 c-28 -40 -28 -47 -5 -47 30 0 63 30 60 53 -5 34 -31 31
-55 -6z"/>
<path d="M2161 11919 c-99 -34 -304 -78 -399 -85 -126 -10 -136 -20 -58 -55
35 -15 52 -17 106 -9 165 24 394 110 440 165 16 20 10 19 -89 -16z"/>
<path d="M2644 11896 c-13 -33 96 -245 137 -267 26 -13 83 -4 100 17 18 22 0
47 -44 59 -48 14 -67 33 -123 126 -48 79 -60 91 -70 65z"/>
<path d="M2273 11863 c-29 -6 -29 -19 -1 -34 23 -12 196 -8 231 6 24 10 21 21
-5 29 -25 6 -190 6 -225 -1z"/>
<path d="M2780 11840 c0 -12 33 -30 54 -30 24 0 19 27 -6 34 -33 8 -48 7 -48
-4z"/>
<path d="M2895 11840 c-3 -5 16 -20 43 -34 27 -14 93 -53 147 -87 166 -104
212 -110 371 -43 79 33 99 37 176 38 95 1 112 12 53 35 -32 13 -52 12 -158 -2
-67 -10 -169 -17 -226 -17 l-104 0 -112 60 c-109 58 -174 76 -190 50z"/>
<path d="M1486 11810 c-63 -11 -75 -23 -51 -50 22 -25 78 -41 115 -33 39 7 72
40 68 66 -2 18 -10 22 -43 24 -22 0 -62 -3 -89 -7z"/>
<path d="M4313 11603 c9 -2 23 -2 30 0 6 3 -1 5 -18 5 -16 0 -22 -2 -12 -5z"/>
<path d="M2885 11570 c-7 -12 2 -30 16 -30 12 0 12 27 0 35 -5 3 -12 1 -16 -5z"/>
<path d="M12040 11066 c0 -8 5 -18 10 -21 6 -3 10 3 10 14 0 12 -4 21 -10 21
-5 0 -10 -6 -10 -14z"/>
<path d="M5567 10958 c-2 -7 -2 -53 1 -103 6 -112 -11 -181 -77 -325 -27 -58
-60 -153 -75 -212 -14 -60 -48 -170 -75 -245 -64 -180 -73 -215 -75 -293 -1
-58 3 -71 32 -114 17 -27 32 -58 32 -68 0 -60 69 -92 187 -87 69 4 85 8 133
39 104 67 214 103 295 98 l50 -3 -44 -13 c-46 -14 -81 -33 -81 -43 0 -4 9 -9
20 -12 30 -8 24 -32 -14 -52 -19 -11 -33 -22 -30 -27 8 -13 65 21 137 83 37
33 79 62 93 65 38 10 107 -3 178 -31 34 -14 76 -25 93 -25 44 0 148 -46 350
-154 254 -135 418 -213 493 -232 38 -10 103 -17 155 -17 85 0 113 5 258 49 48
14 62 15 81 4 31 -16 59 -6 102 36 96 97 122 175 134 414 6 102 15 255 20 340
13 195 13 290 0 290 -5 0 -19 -30 -30 -67 -37 -121 -50 -227 -50 -417 0 -232
-8 -281 -65 -414 l-47 -110 -142 -29 c-115 -23 -166 -28 -276 -28 -128 1 -140
3 -223 34 -49 18 -179 78 -290 133 -439 217 -575 273 -647 266 -50 -4 -50 5
-4 73 20 30 31 55 25 57 -6 2 -33 -14 -61 -36 -51 -41 -79 -51 -220 -77 -47
-9 -121 -32 -165 -52 -44 -19 -105 -45 -136 -56 -68 -25 -84 -18 -94 46 -10
60 -19 67 -89 67 -74 0 -106 18 -106 60 0 16 16 77 36 137 19 59 57 191 84
292 54 199 75 252 139 350 22 36 46 81 52 101 17 56 7 247 -14 288 -18 32 -42
42 -50 20z m-95 -1313 c17 -37 -1 -52 -41 -35 -46 19 -42 60 6 60 15 0 27 -9
35 -25z"/>
<path d="M8109 10723 c5 -10 50 -65 100 -123 50 -58 98 -120 107 -139 20 -42
10 -79 -28 -100 -37 -21 -81 -5 -218 80 -269 168 -319 145 -59 -27 196 -129
283 -153 338 -93 l28 31 21 -27 c12 -14 28 -61 37 -103 22 -101 42 -164 77
-237 15 -33 28 -72 28 -86 0 -73 -69 -272 -173 -494 -35 -77 -68 -151 -71
-165 l-7 -25 25 28 c37 41 129 200 196 340 45 93 60 117 65 102 19 -59 22 -57
29 24 6 81 18 121 35 121 15 0 361 -298 361 -311 0 -4 -16 -10 -35 -13 -71
-14 -255 -119 -255 -147 0 -20 69 -9 98 16 38 32 150 85 179 85 23 0 25 -5 38
-82 8 -53 39 -82 118 -113 77 -30 97 -30 114 5 14 27 18 130 6 130 -5 0 -26
-12 -48 -25 -56 -35 -88 -33 -119 8 -32 42 -56 109 -56 157 0 23 -8 48 -22 65
-11 15 -98 84 -192 154 -168 125 -222 174 -250 229 -7 15 -48 135 -91 266
l-77 239 -72 71 c-118 117 -257 214 -227 159z"/>
<path d="M7041 10641 c-24 -24 -27 -41 -8 -41 23 0 52 39 40 51 -8 8 -17 5
-32 -10z"/>
<path d="M9571 10203 c-5 -21 -21 -85 -35 -142 -39 -153 -126 -331 -162 -331
-21 0 -112 87 -146 139 -30 49 -34 71 -16 100 12 20 5 49 -14 55 -7 3 -30 7
-51 11 -33 5 -36 8 -27 25 14 26 13 29 -10 23 -28 -7 -50 -41 -50 -76 0 -21
11 -38 41 -65 23 -20 78 -88 122 -150 126 -176 167 -203 213 -135 45 67 184
485 184 554 0 22 -5 29 -20 29 -14 0 -22 -10 -29 -37z"/>
<path d="M8880 10162 c0 -29 86 -198 105 -206 21 -8 35 0 35 21 0 37 -107 203
-131 203 -5 0 -9 -8 -9 -18z"/>
<path d="M6154 10119 c-39 -26 -95 -51 -177 -78 -93 -31 -97 -45 -11 -38 38 3
88 9 112 13 59 9 54 -10 -11 -41 -95 -44 -112 -85 -36 -85 53 0 111 31 170 90
58 58 62 75 18 66 l-31 -6 6 44 c8 53 -1 61 -40 35z"/>
<path d="M6274 10108 c-7 -11 21 -38 41 -38 6 0 22 -11 35 -25 21 -23 50 -34
50 -19 0 17 -36 63 -60 78 -33 19 -56 21 -66 4z"/>
<path d="M6420 10090 c0 -4 27 -32 59 -63 59 -54 146 -105 159 -93 13 14 -16
42 -99 98 -83 56 -119 74 -119 58z"/>
<path d="M6275 9960 c-15 -25 44 -150 98 -207 57 -61 63 -39 12 41 -19 30 -35
58 -35 61 0 3 -12 31 -26 61 -25 53 -37 64 -49 44z"/>
<path d="M6425 9833 c16 -27 43 -67 62 -90 41 -52 103 -73 207 -73 l71 0 -51
28 c-28 16 -89 56 -135 90 -79 57 -143 92 -170 92 -6 0 1 -21 16 -47z"/>
<path d="M6060 9854 c-25 -8 -85 -19 -135 -24 -106 -13 -135 -19 -135 -31 0
-12 116 -11 203 2 74 11 167 45 167 60 0 13 -48 9 -100 -7z"/>
<path d="M5374 9795 c-14 -10 -16 -17 -8 -25 13 -13 44 -3 44 15 0 21 -15 26
-36 10z"/>
<path d="M6242 9788 c-7 -7 -12 -23 -12 -37 0 -22 2 -23 14 -11 31 33 29 79
-2 48z"/>
<path d="M6380 9521 c0 -12 118 -71 142 -71 47 0 2 32 -93 65 -49 18 -49 18
-49 6z"/>
<path d="M5985 9502 c-38 -10 -128 -42 -198 -71 -71 -28 -148 -54 -173 -58
-24 -3 -51 -11 -61 -18 -15 -11 -14 -14 10 -30 45 -29 114 -16 262 49 178 78
169 75 230 82 52 6 55 5 102 -34 33 -29 53 -56 65 -89 l17 -48 -2 80 -2 80 37
3 c28 2 43 -3 70 -26 18 -16 48 -33 65 -36 38 -9 85 -59 59 -64 -8 -2 -25 2
-36 8 -12 6 -24 9 -26 7 -10 -10 75 -163 108 -194 31 -30 105 -69 114 -60 2 2
-31 38 -73 80 l-78 77 63 -6 c52 -6 62 -4 62 9 0 9 -17 21 -42 29 -44 15 -58
32 -35 41 20 8 93 -28 254 -124 76 -45 170 -97 209 -115 90 -42 221 -76 276
-72 43 3 42 3 -52 37 -134 47 -335 145 -502 244 -79 47 -210 118 -292 159
l-149 73 -106 2 c-76 2 -126 -2 -176 -15z"/>
<path d="M7270 9504 c0 -12 24 -51 52 -83 l29 -33 -22 -24 c-31 -33 -19 -54
30 -54 22 0 43 5 46 11 4 5 7 33 7 61 -1 55 -21 87 -74 114 -27 14 -68 19 -68
8z"/>
<path d="M7189 9466 c-24 -53 30 -154 69 -130 25 16 26 43 2 69 -11 12 -24 35
-29 51 -10 37 -28 41 -42 10z"/>
<path d="M6300 9341 c0 -18 47 -106 64 -121 29 -23 29 -3 1 49 -29 53 -65 93
-65 72z"/>
<path d="M5994 9210 c-131 -14 -172 -22 -191 -35 -17 -13 -14 -15 27 -34 56
-26 59 -26 156 0 113 30 220 24 289 -16 101 -60 196 -165 328 -364 124 -186
202 -281 232 -281 8 0 15 4 15 8 0 25 -244 384 -353 519 -65 81 -159 154 -245
189 -61 25 -121 28 -258 14z"/>
<path d="M6630 9177 c0 -27 40 -50 92 -55 47 -4 52 -3 40 11 -15 18 -95 57
-117 57 -8 0 -15 -6 -15 -13z"/>
<path d="M8226 9135 c-17 -26 -21 -45 -8 -45 8 0 42 52 42 64 0 14 -19 4 -34
-19z"/>
<path d="M9980 9060 c0 -25 4 -39 10 -35 6 3 10 19 10 35 0 16 -4 32 -10 35
-6 4 -10 -10 -10 -35z"/>
<path d="M6810 9022 c0 -4 29 -43 64 -86 164 -202 228 -383 227 -646 -1 -132
-9 -209 -31 -280 -15 -52 -14 -66 6 -49 24 20 50 78 65 144 21 93 18 393 -4
473 -41 146 -108 256 -229 375 -73 71 -98 89 -98 69z"/>
<path d="M7707 8834 c-13 -13 -7 -148 8 -209 10 -36 48 -115 97 -199 115 -196
132 -240 136 -357 8 -217 -90 -471 -256 -660 -70 -80 -96 -119 -81 -119 39 0
248 268 309 395 62 130 84 221 84 350 0 98 -4 120 -34 208 -21 64 -60 144
-110 227 -75 125 -101 191 -115 291 -6 48 -25 85 -38 73z"/>
<path d="M7380 8763 c0 -9 32 -76 71 -150 88 -167 107 -222 121 -351 11 -96 5
-252 -18 -507 -5 -58 -5 -59 10 -33 57 98 78 512 35 683 -18 73 -52 147 -116
249 -62 99 -82 126 -95 126 -4 0 -8 -7 -8 -17z"/>
<path d="M9390 8512 c0 -25 51 -94 89 -121 58 -41 173 -83 214 -78 41 6 77 31
77 54 0 15 -4 15 -78 13 -82 -2 -145 24 -217 91 -66 62 -85 71 -85 41z"/>
<path d="M9902 8410 c-81 -120 -117 -164 -179 -215 -79 -65 -100 -72 -154 -55
-37 12 -41 12 -64 -10 -14 -13 -25 -27 -25 -32 0 -14 48 -55 85 -72 32 -15 37
-15 66 -1 65 34 236 232 294 340 44 83 27 117 -23 45z"/>
<path d="M7314 8266 c3 -31 20 -116 36 -189 43 -190 57 -362 37 -460 -30 -149
-113 -280 -248 -392 -108 -91 -107 -112 4 -52 94 49 187 148 240 256 62 122
81 215 74 350 -5 118 -42 297 -90 440 -38 112 -64 135 -53 47z"/>
<path d="M8424 7661 c-36 -22 -51 -41 -33 -41 17 0 79 40 79 51 0 14 -12 11
-46 -10z"/>
<path d="M9624 7603 c-14 -21 -57 -87 -97 -148 -80 -123 -206 -257 -252 -269
-26 -7 -34 -3 -56 23 -37 45 -49 40 -49 -23 0 -62 27 -106 65 -106 69 0 285
242 375 419 63 126 72 188 14 104z"/>
<path d="M9047 7203 c-4 -3 -7 -15 -7 -26 0 -33 -61 -83 -125 -103 -84 -26
-143 -87 -200 -206 -24 -51 -65 -122 -90 -157 -50 -70 -53 -79 -28 -88 11 -4
28 7 55 38 37 42 39 43 53 25 8 -11 15 -28 15 -37 0 -24 -38 -49 -75 -49 -17
0 -40 -6 -51 -14 -18 -14 -18 -16 -2 -32 30 -31 108 -14 151 34 10 11 20 36
24 55 5 31 1 40 -27 69 -29 28 -31 35 -22 58 31 77 56 138 63 157 11 29 79 78
137 98 120 42 141 62 150 140 4 41 -4 56 -21 38z"/>
<path d="M6963 7105 c-3 -9 -3 -18 0 -21 9 -9 27 6 27 22 0 19 -19 18 -27 -1z"/>
<path d="M8918 6854 c-15 -8 -32 -23 -38 -34 -9 -17 -8 -20 12 -20 29 0 108
36 108 48 0 24 -44 27 -82 6z"/>
<path d="M5430 6765 c-20 -24 33 -94 90 -122 55 -27 96 -21 170 27 75 48 66
63 -43 72 -49 4 -112 15 -140 23 -62 18 -62 18 -77 0z"/>
<path d="M9013 5858 c-5 -7 -15 -32 -22 -55 -13 -47 -18 -50 -130 -100 -41
-18 -81 -39 -89 -47 -13 -13 -10 -13 26 -5 156 35 242 93 242 163 0 41 -13 62
-27 44z"/>
<path d="M10055 5199 c11 -34 44 -99 68 -131 18 -24 19 -31 8 -52 -9 -16 -10
-29 -3 -42 19 -36 230 -233 292 -273 143 -93 397 -130 464 -68 34 31 40 60 18
87 -16 19 -49 29 -206 61 -242 48 -280 66 -422 202 -59 56 -134 133 -167 171
-37 44 -57 60 -52 45z m173 -257 c3 -9 -2 -13 -14 -10 -9 1 -19 9 -22 16 -3 9
2 13 14 10 9 -1 19 -9 22 -16z m298 -192 c89 -35 111 -50 74 -50 -55 1 -117
23 -182 66 -73 49 -85 82 -14 40 24 -14 78 -39 122 -56z"/>
<path d="M10055 4975 c8 -40 134 -300 191 -393 117 -193 286 -382 341 -382 32
0 6 42 -77 123 -49 49 -90 95 -90 103 0 18 10 18 36 -1 59 -41 315 -115 400
-115 41 0 55 5 73 24 13 14 20 29 16 35 -4 7 9 11 37 11 48 0 90 22 73 39 -10
10 -84 20 -290 41 -140 14 -221 33 -288 66 -76 39 -249 216 -325 334 -33 52
-70 106 -82 120 l-21 25 6 -30z m725 -588 l25 -11 -25 -4 c-35 -6 -160 18
-160 30 0 13 122 1 160 -15z"/>
<path d="M9820 4744 c0 -9 16 -68 35 -132 73 -239 79 -278 80 -494 0 -122 4
-199 10 -200 21 -6 39 60 43 157 3 73 -1 133 -16 220 -23 133 -79 344 -111
418 -20 46 -41 62 -41 31z"/>
<path d="M10106 4671 c-11 -18 61 -178 146 -323 36 -64 258 -308 279 -308 5 0
9 23 9 51 0 58 -12 74 -122 151 -82 58 -115 102 -208 280 -73 139 -93 167
-104 149z"/>
<path d="M9591 4381 c-1 -13 18 -97 41 -185 43 -160 43 -162 42 -331 0 -93 -6
-205 -13 -248 -7 -43 -10 -81 -8 -84 12 -11 66 33 87 70 21 36 22 49 17 141
-6 115 -33 256 -82 432 -39 137 -83 245 -84 205z"/>
<path d="M10170 4270 c0 -34 108 -190 131 -190 23 0 4 51 -42 113 -49 66 -89
100 -89 77z"/>
<path d="M3571 4117 c-6 -16 -11 -37 -11 -47 0 -10 -4 -21 -9 -25 -13 -7 -31
27 -31 59 0 33 -18 33 -30 0 -16 -41 25 -353 49 -377 18 -18 35 84 55 328 6
71 -7 105 -23 62z"/>
<path d="M9247 3729 c-3 -12 1 -96 8 -188 8 -91 15 -192 15 -223 0 -102 25
-118 59 -39 30 70 26 116 -19 274 -22 76 -40 152 -40 168 0 34 -15 39 -23 8z"/>
<path d="M4657 2078 c-3 -13 -13 -81 -21 -153 -19 -160 -37 -229 -82 -321 -38
-78 -113 -160 -138 -151 -12 5 -7 23 30 104 83 184 158 453 127 453 -12 0 -19
-18 -56 -137 -29 -91 -112 -279 -185 -418 -58 -110 -76 -122 -223 -150 -14 -2
-79 -43 -145 -90 -65 -46 -153 -103 -195 -125 -176 -92 -103 -102 154 -20 67
21 154 48 194 59 56 17 78 29 104 59 30 33 31 37 13 40 -10 1 -59 -11 -108
-28 -100 -34 -136 -39 -117 -16 20 24 107 56 225 81 207 43 256 78 332 239 84
178 120 352 115 549 -1 49 -15 63 -24 25z"/>
<path d="M4550 1213 c-73 -33 -78 -34 -173 -29 -111 5 -111 5 -23 -63 29 -23
62 -41 72 -41 21 0 130 74 199 134 53 46 27 46 -75 -1z"/>
<path d="M4090 1085 c-89 -24 -286 -99 -307 -117 -22 -18 -14 -56 18 -93 40
-45 70 -61 133 -70 36 -6 58 -16 82 -40 40 -40 89 -49 227 -40 167 11 211 30
242 108 14 33 14 38 1 43 -9 3 -40 -6 -70 -20 -94 -45 -287 -82 -309 -60 -16
16 16 43 61 53 27 5 87 27 133 47 46 20 115 42 154 48 71 13 88 28 53 50 -26
16 -139 -7 -312 -65 -268 -89 -324 -77 -72 15 197 72 244 108 169 131 -18 5
-33 15 -33 22 0 20 -73 15 -170 -12z m79 -66 c-8 -5 -64 -24 -126 -44 -62 -19
-119 -38 -128 -41 -8 -3 -15 -2 -15 3 0 16 73 51 145 69 39 10 84 23 100 30
31 13 50 0 24 -17z"/>
</g>
</svg>
